<?xml version="1.0" encoding="UTF-8"?>
<svg id="Layer_1" data-name="Layer 1" xmlns="http://www.w3.org/2000/svg" viewBox="0 0 216 216">
  <defs>
    <style>
      .cls-1 {
        fill: #fdb71a;
        stroke-width: 0px;
      }
    </style>
  </defs>
  <path class="cls-1" d="m108,80.45c-16.2,0-29.38,13.18-29.38,29.38,0,11.49,6.59,21.77,16.91,26.6l1.43.64c.2.08.41.16.63.25l.27.1c.24.09.48.17.73.26v8.18l1.82.38c2.5.52,5.06.79,7.59.79,1.92,0,3.87-.15,5.8-.46l1.93-.3v-8.07c.75-.2,1.51-.45,2.3-.73.34-.12.68-.26,1.02-.4l1.42-.58v-.05c10.32-4.83,16.91-15.11,16.91-26.6,0-16.2-13.18-29.38-29.38-29.38Zm9.33,52.37l-.63.26c-.09.03-.18.07-.27.1-.64.23-1.29.44-2.02.63l-.26.07c-.38.1-.77.21-1.16.29l-1.82.37v7.75c-2.69.26-5.35.19-8-.21v-7.85l-2.2-.61c-.44-.13-.88-.27-1.32-.42l-.97-.39c-9.41-3.82-15.49-12.85-15.49-22.99,0-13.68,11.13-24.82,24.82-24.82s24.81,11.13,24.81,24.82c0,10.15-6.08,19.18-15.48,22.99Zm-9.33-79.8c-31.34,0-56.84,25.5-56.84,56.84s25.5,56.84,56.84,56.84,56.84-25.5,56.84-56.84-25.5-56.84-56.84-56.84Zm0,109.12c-28.83,0-52.28-23.45-52.28-52.28s23.45-52.28,52.28-52.28,52.28,23.45,52.28,52.28-23.45,52.28-52.28,52.28Zm88.46-68.61h0c-1.16-.75-3.49-1.45-5.2-1.77l-16.01-2.96c-1.44-.27-3.16-.8-3.85-1.13-.49-.47-1.65-2.29-2.04-3.21-.36-.86-.75-2.24-.88-3.07.14-.75,1.17-3,1.97-4.16l9.23-13.43c.98-1.43,2.13-3.58,2.42-4.93.59-2.71-3.47-6.92-3.52-6.96l-12.62-12.63c-1.23-1.23-3.13-2.75-4.4-3.28-2.55-1.07-7.44,2.16-7.48,2.19l-13.43,9.23c-1.21.83-2.8,1.67-3.52,1.92h-.04c-.72,0-2.76-.46-3.67-.84-.86-.35-2.11-1.05-2.79-1.55-.42-.63-1.29-2.95-1.55-4.34l-2.96-16.01c-.31-1.7-1.02-4.03-1.77-5.2-1.5-2.33-7.35-2.44-7.41-2.44h-17.85c-1.73,0-4.16.27-5.43.8-2.57,1.05-3.73,6.78-3.74,6.84l-2.96,16.01c-.27,1.44-.8,3.16-1.13,3.85-.47.49-2.29,1.65-3.22,2.04-.86.36-2.24.75-3.07.88-.75-.14-3-1.17-4.16-1.97l-13.43-9.23c-1.43-.98-3.58-2.13-4.93-2.42-2.73-.59-6.92,3.47-6.96,3.52l-12.62,12.62c-1.23,1.23-2.75,3.13-3.28,4.4-1.07,2.55,2.16,7.44,2.19,7.48l9.23,13.43c.83,1.21,1.67,2.8,1.92,3.52.02.68-.45,2.78-.84,3.71-.35.86-1.05,2.12-1.55,2.79-.63.43-2.95,1.29-4.34,1.55l-16.01,2.96c-1.7.32-4.04,1.02-5.2,1.77-2.33,1.5-2.44,7.35-2.44,7.41v17.85c0,1.73.27,4.16.8,5.44,1.05,2.56,6.78,3.73,6.84,3.74l16.01,2.96c1.44.27,3.16.8,3.85,1.13.49.47,1.65,2.29,2.04,3.22.36.86.75,2.24.88,3.07-.14.75-1.17,3-1.97,4.16l-9.23,13.43c-.98,1.43-2.13,3.58-2.42,4.93-.59,2.71,3.47,6.92,3.52,6.96l12.62,12.62c1.23,1.23,3.13,2.75,4.41,3.28,2.55,1.06,7.43-2.16,7.48-2.19l13.43-9.23c1.21-.83,2.79-1.67,3.52-1.92.71-.06,2.79.45,3.71.84.86.36,2.12,1.06,2.8,1.55.42.63,1.29,2.95,1.55,4.34l2.96,16.01c.32,1.71,1.03,4.04,1.77,5.2,1.5,2.33,7.35,2.44,7.41,2.44h17.85c1.73,0,4.16-.27,5.44-.8,2.56-1.05,3.73-6.78,3.74-6.84l2.96-16.01c.27-1.44.8-3.16,1.13-3.85.47-.49,2.29-1.65,3.21-2.04.86-.36,2.24-.75,3.07-.88.75.14,3,1.17,4.16,1.97l13.43,9.23c1.43.98,3.58,2.13,4.93,2.42,2.71.6,6.92-3.47,6.96-3.52l12.62-12.62c1.23-1.23,2.75-3.13,3.28-4.4,1.07-2.56-2.15-7.44-2.19-7.49l-9.23-13.43c-.89-1.3-1.69-2.86-1.92-3.52-.02-.68.45-2.78.84-3.71.36-.86,1.06-2.12,1.55-2.79.63-.43,2.95-1.29,4.34-1.55l16.01-2.96c1.7-.31,4.03-1.02,5.2-1.77,2.33-1.5,2.44-7.35,2.44-7.41v-17.85c0-.06-.11-5.91-2.44-7.41Zm-2.12,25.26c0,1.13-.35,2.97-.65,3.73-.62.27-1.91.72-3.26.97l-16.01,2.96c-.05,0-5.52,1.19-7.02,3.12-.74.96-1.71,2.66-2.25,3.96-.02.04-1.69,4.52-1.02,6.69.41,1.35,1.63,3.52,2.56,4.87l9.23,13.43c.64.93,1.39,2.65,1.58,3.44-.35.57-1.16,1.67-2.13,2.64l-12.62,12.62c-.8.8-2.35,1.85-3.09,2.18-.63-.24-1.86-.84-2.99-1.62l-13.42-9.23s-4.75-3.09-7.18-2.75c-1.2.15-3.09.68-4.39,1.21-.04.02-4.38,2-5.45,4.02-.66,1.25-1.33,3.64-1.63,5.25l-2.96,16.01c-.2,1.11-.89,2.85-1.32,3.54-.66.16-2.01.36-3.38.36h-17.85c-1.13,0-2.97-.35-3.73-.65-.27-.61-.72-1.91-.97-3.26l-2.96-16.01c0-.05-1.19-5.53-3.12-7.02-.96-.74-2.66-1.71-3.96-2.25-.04-.02-4.52-1.69-6.69-1.02-1.35.41-3.52,1.63-4.87,2.56l-13.42,9.23c-.93.64-2.65,1.39-3.44,1.58-.58-.35-1.67-1.17-2.64-2.14l-12.62-12.62c-.8-.8-1.85-2.35-2.18-3.09.24-.63.84-1.86,1.62-2.99l9.23-13.43s3.07-4.75,2.75-7.18c-.15-1.2-.68-3.09-1.21-4.38-.02-.04-2-4.38-4.02-5.45-1.25-.66-3.64-1.34-5.25-1.63l-16.01-2.96c-1.11-.2-2.85-.89-3.55-1.32-.16-.66-.36-2.01-.36-3.38v-17.85c0-1.13.35-2.97.65-3.73.62-.27,1.91-.72,3.26-.97l16.01-2.96c.05-.01,5.52-1.19,7.02-3.12.74-.96,1.71-2.66,2.25-3.96.02-.04,1.69-4.52,1.02-6.69-.41-1.35-1.63-3.52-2.56-4.87l-9.23-13.43c-.64-.93-1.39-2.65-1.58-3.44.35-.57,1.17-1.67,2.13-2.64l12.62-12.62c.8-.8,2.35-1.85,3.09-2.18.63.24,1.86.84,2.99,1.62l13.43,9.23s4.74,3.07,7.18,2.75c1.2-.15,3.09-.68,4.38-1.21.04-.02,4.38-2,5.45-4.02.66-1.24,1.33-3.63,1.64-5.25l2.96-16.01c.2-1.11.89-2.85,1.31-3.55.66-.16,2.01-.36,3.38-.36h17.85c1.13,0,2.97.35,3.73.65.27.62.72,1.91.97,3.26l2.96,16.01c0,.05,1.19,5.52,3.12,7.02.96.74,2.67,1.71,3.96,2.25.04.02,4.51,1.68,6.69,1.02,1.35-.41,3.51-1.63,4.87-2.56l13.43-9.23c.93-.64,2.64-1.39,3.43-1.58.58.35,1.68,1.17,2.64,2.13l12.62,12.63c.8.8,1.85,2.35,2.18,3.09-.24.63-.84,1.86-1.62,2.99l-9.23,13.42s-3.07,4.74-2.75,7.18c.15,1.2.68,3.09,1.21,4.39.02.04,2,4.38,4.02,5.45,1.25.66,3.64,1.34,5.25,1.63l16.01,2.96c1.35.25,2.64.69,3.26.97.29.76.65,2.6.65,3.73v17.85Z"/>
</svg>