<?xml version="1.0" encoding="UTF-8"?>
<svg id="Layer_1" data-name="Layer 1" xmlns="http://www.w3.org/2000/svg" viewBox="0 0 300 300">
  <defs>
    <style>
      .cls-1 {
        fill: #fdb71a;
      }

      .cls-1, .cls-2 {
        stroke-width: 0px;
      }

      .cls-2 {
        fill: #4f4e4e;
      }
    </style>
  </defs>
  <path class="cls-1" d="m152.84,251.83h24.92v13.03c-5.29,2.15-9.02,7.34-9.02,13.41,0,7.99,6.48,14.47,14.47,14.47s14.47-6.48,14.47-14.47c0-6.06-3.73-11.25-9.03-13.41v-18.47c0-3.01-2.44-5.45-5.45-5.45h-30.73"/>
  <path class="cls-1" d="m152.84,64.2c-.11,0-.23.02-.36.03"/>
  <path class="cls-1" d="m152.84,89.89h39.82c1.27,0,2.51-.44,3.48-1.26l26.82-22.28c1.75.75,3.67,1.16,5.69,1.16,7.99,0,14.47-6.48,14.47-14.47s-6.48-14.47-14.47-14.47-14.47,6.48-14.47,14.47c0,1.96.39,3.83,1.1,5.53l-24.58,20.41h-37.85"/>
  <path class="cls-1" d="m152.84,122.11h51.73c.99,0,1.97-.27,2.83-.79l29.63-17.97h11.12c2.15,5.29,7.34,9.03,13.41,9.03,7.99,0,14.47-6.48,14.47-14.47s-6.48-14.47-14.47-14.47c-6.07,0-11.25,3.73-13.41,9.03h-12.65c-.99,0-1.97.27-2.82.79l-29.63,17.96h-50.21"/>
  <path class="cls-1" d="m152.48,152.96h101.35c2.16,5.27,7.34,8.98,13.39,8.98,7.99,0,14.47-6.48,14.47-14.47s-6.48-14.47-14.47-14.47c-6.08,0-11.28,3.75-13.42,9.06h-100.96"/>
  <path class="cls-1" d="m152.48,53.37h30.73c3.01,0,5.45-2.44,5.45-5.45v-12.7c5.29-2.15,9.03-7.34,9.03-13.41,0-7.99-6.48-14.47-14.47-14.47s-14.47,6.48-14.47,14.47c0,6.07,3.73,11.26,9.03,13.41v7.25h-25.27"/>
  <path class="cls-2" d="m112.2,39.01c2.6-1.59,6.04-.77,7.79,1.73,8.26,11.82,25.15,12.63,26.13,12.63h6.36v-20.44c-.71-4.8-2.46-10.87-6.68-15.72-4.8-5.53-12.08-8.57-21.62-9.04-19.09-.93-44.34,24.68-46.58,47.24-2.15,21.64,17.48,29.21,34.34,31.75,3.15.47,5.32,3.41,4.85,6.56-.48,3.15-3.41,5.32-6.57,4.85-37.64-5.67-44.02-26.68-44.29-39.35-.02-1.12-1.21-1.83-2.19-1.3-9.56,5.15-30.37,20.8-23.63,57.21.56,3.03-1.22,6.11-4.21,6.86-.48.12-.96.18-1.43.18-2.72,0-5.14-1.94-5.66-4.71,0-.01,0-.02,0-.04-.25-1.36-2.03-1.69-2.74-.51-4.04,6.67-8.25,17.53-7.69,33.43.61,17.21,6.62,28.3,22.93,42.3,2.4,2.06,2.89,5.68.9,8.14-1.15,1.42-2.81,2.15-4.49,2.15-1.33,0-2.66-.45-3.75-1.38-.3-.26-.6-.52-.9-.77-1-.87-2.56-.1-2.46,1.23,1.06,14.81,7.73,39.1,38.97,46.91.95.24,1.86-.48,1.86-1.45,0-7.06,1.49-15.98,6.9-25.12l-16.25-17.57c-2.25-2.43-2.01-6.28.61-8.4,2.39-1.94,5.91-1.54,7.99.71l14.67,15.87c7.92-8.6,20.09-16.91,38.54-23.52,3-1.08,6.3.49,7.38,3.49,1.08,3-.49,6.3-3.48,7.38-32.62,11.69-48.33,30.78-44.26,53.76,1.79,10.06,7.54,20.22,15.79,27.86,7.98,7.39,17.26,11.59,25.56,11.53,10.85-.08,19.01-2.68,23.61-7.51,2.46-2.58,3.53-5.4,4-7.4v-37.59h-6.36c-4.47,0-19.56,3.13-26.25,12.39-1.13,1.56-2.9,2.39-4.68,2.39-1.29,0-2.59-.43-3.67-1.32-2.38-1.97-2.68-5.52-.86-8.01,12.84-17.56,34.54-17.35,41.83-16.72v-65.58h-4.81c-10.62,0-20.71-4.04-28.41-11.37l-9.02-8.6c-5.52-5.26-12.76-8.17-20.39-8.18l-10.96.24c-4.32,13.35-18.82,21.81-19.51,22.21-.9.52-1.89.77-2.86.77-2,0-3.94-1.04-5.01-2.9-1.59-2.76-.63-6.28,2.13-7.87,3.87-2.24,14.07-9.94,14.89-18.57.47-5.03-2.35-10.22-8.4-15.44-2.49-2.16-2.69-5.99-.36-8.39,2.16-2.23,5.75-2.23,8.09-.19,6.79,5.91,10.77,12.23,11.91,18.83l9.91-.22s.08,0,.12,0c10.63,0,20.72,4.04,28.41,11.37l9.02,8.6c3.6,3.43,10.78,8.6,16.34,8.6h8.91v-88.73c-1.22.11-2.85.2-4.78.2-9.59,0-26.51-2.33-37.19-17.11-1.96-2.71-1.22-6.54,1.69-8.32"/>
  <path class="cls-1" d="m152.84,183.09h50.21l29.63,17.96c.85.52,1.83.79,2.82.79h12.65c2.15,5.29,7.34,9.02,13.41,9.02,7.99,0,14.47-6.48,14.47-14.47s-6.48-14.47-14.47-14.47c-6.07,0-11.25,3.73-13.41,9.02h-11.12l-29.63-17.96c-.85-.52-1.83-.79-2.83-.79h-51.73"/>
  <path class="cls-1" d="m152.84,215.36h37.85l24.58,20.42c-.71,1.7-1.1,3.57-1.1,5.53,0,7.99,6.48,14.47,14.47,14.47s14.47-6.48,14.47-14.47-6.48-14.47-14.47-14.47c-2.02,0-3.94.42-5.69,1.16l-26.82-22.28c-.98-.82-2.21-1.26-3.48-1.26h-39.82"/>
  <path class="cls-1" d="m152.48,229.66c.12,0,.24.02.36.03"/>
</svg>