<svg id="Layer_1" data-name="Layer 1" xmlns="http://www.w3.org/2000/svg" viewBox="0 0 28 28">
  <defs>
    <style>
      .cls-1, .cls-2 {
        fill: #ffb71b;
      }

      .cls-2 {
        stroke: #ffb71b;
        stroke-miterlimit: 10;
        stroke-width: 0.44172px;
      }
    </style>
  </defs>
  <rect width="28" height="28"/>
  <g>
    <g>
      <path class="cls-1" d="M23.6264,8.00769a.20764.20764,0,1,0,.35-.22348l-.026-.04116a.20767.20767,0,1,0-.35366.21779Zm-.73917-1.04051a.2076.2076,0,0,0,.32568-.25754l-.03447-.0432a.20768.20768,0,0,0-.32163.26282Zm-.88476-1.2796a.20757.20757,0,0,0,0,.29364l.0367.0367a.20763.20763,0,0,0,.29364-.29363l-.03671-.03671A.20758.20758,0,0,0,22.00247,5.68758Zm2.7273,4.61a.20772.20772,0,0,0,.3926-.13587l-.01906-.05354a.20764.20764,0,0,0-.38936.14439Zm-.4875-1.17679a.20766.20766,0,1,0,.37434-.17987l-.02372-.04867a.20759.20759,0,1,0-.37232.18373Zm1.04557,3.6068.00568.04928a.20751.20751,0,0,0,.20624.18575l.0221-.00121a.20742.20742,0,0,0,.18454-.22834l-.00608-.05415a.20767.20767,0,0,0-.41248.04867Zm-.21718-1.25384.01135.04887a.20747.20747,0,0,0,.20218.16142.20138.20138,0,0,0,.04644-.00527.20759.20759,0,0,0,.15615-.24882l-.01217-.05232a.20761.20761,0,1,0-.40395.09612ZM16.49209,2.95987l.04806.01075a.20144.20144,0,0,0,.04644.00527.20763.20763,0,0,0,.046-.41l-.05333-.012a.20762.20762,0,0,0-.0872.406Zm-1.27835-.21316.02555.00573,0,.00038.00353.00038.019.00426a.2014.2014,0,0,0,.04644.00528.206.206,0,0,0,.18121-.11126l.00469-.01123a.20139.20139,0,0,0,.01628-.03893c.00111-.0049-.00038-.00956.00038-.01445l.00344-.01108a.19442.19442,0,0,0-.0024-.0293.20477.20477,0,0,0-.0031-.03739.20091.20091,0,0,0-.02-.05187l-.00846-.01642a.20314.20314,0,0,0-.04855-.05179l-.00339-.00291a.20188.20188,0,0,0-.096-.04089l-.02228-.00243-.00912-.00206c-.00393-.00089-.00761.00046-.01154-.0002l-.0108-.00119-.0001.001a.20467.20467,0,0,0-.22416.15979A.20746.20746,0,0,0,15.21374,2.74671Zm10.35781,11.0457a.20754.20754,0,0,0-.20766.20765A11.36387,11.36387,0,1,1,14,2.63619a.20766.20766,0,1,0,0-.41531A11.77929,11.77929,0,1,0,25.7792,14.00006.20754.20754,0,0,0,25.57155,13.79241ZM17.7147,3.30705l.04969.01723a.20772.20772,0,1,0,.13586-.3926l-.04846-.01683a.20773.20773,0,0,0-.13709.3922Zm2.92868,2.22476a.98211.98211,0,1,0-.98211-.9821A.98333.98333,0,0,0,20.64338,5.53181Zm0-1.75655a.77445.77445,0,1,1-.77445.77445A.77528.77528,0,0,1,20.64338,3.77526Zm0,2.35113A1.57668,1.57668,0,1,0,19.0667,4.54971,1.57834,1.57834,0,0,0,20.64338,6.12639Zm0-2.94571a1.369,1.369,0,1,1-1.369,1.369A1.37041,1.37041,0,0,1,20.64338,3.18068Zm-1.75108.6092.04745.02292a.20771.20771,0,0,0,.18008-.37435l-.04583-.0221a.20769.20769,0,1,0-.1817.37353Z"/>
      <path class="cls-1" d="M14.00072,26a12,12,0,1,1,0-24,.4285.4285,0,0,1,0,.857A11.14337,11.14337,0,1,0,25.143,14,.4285.4285,0,0,1,26,14,12.01339,12.01339,0,0,1,14.00072,26ZM25.537,13.18112a.43353.43353,0,0,1-.463-.3832l.21425-.07046-.21856.028a.42627.42627,0,0,1,.37385-.4781.43384.43384,0,0,1,.476.37313l.00719.05967a.428.428,0,0,1-.38392.47092Zm-.02876-.47595.00575.04673.19268-.01869Zm-.02732-.00359V12.703l.00719-.00072Zm-.197-.7966a.42545.42545,0,0,1-.417-.33431l.20419-.09706-.21425.05248a.42089.42089,0,0,1,.05033-.32424.42906.42906,0,0,1,.26745-.1934.42441.42441,0,0,1,.51476.31634l.01294.05751a.427.427,0,0,1-.32352.51189Zm.01294-.43425.00143.00144Zm-.03739-.046.00144.00072Zm-.33359-.7664a.425.425,0,0,1-.404-.289l-.01582-.04242a.429.429,0,0,1,.25307-.54856.42038.42038,0,0,1,.32928.01294.427.427,0,0,1,.22288.24229l.01869.04961a.43341.43341,0,0,1-.01869.33431.42681.42681,0,0,1-.24589.21784A.4359.4359,0,0,1,24.92589,10.65832Zm.00719-.44.00287.0036Zm-.03739-.03163.00719.00647Zm-.46588-.72758a.4284.4284,0,0,1-.38535-.24085l-.02014-.041A.43116.43116,0,0,1,24.21557,8.6a.42762.42762,0,0,1,.57516.19556l.02588.051a.43008.43008,0,0,1-.20275.57085A.41565.41565,0,0,1,24.42981,9.45911Zm0-.44144.01294.01007A.01592.01592,0,0,0,24.42981,9.01767Zm-.62836-.69306a.427.427,0,0,1-.36091-.19772l-.03164-.05032a.42776.42776,0,0,1,.14092-.58954.40836.40836,0,0,1,.31921-.0532.42968.42968,0,0,1,.27033.19339.44216.44216,0,0,1-.10641.6298A.43253.43253,0,0,1,23.80145,8.32461Zm0-.44144-.17542.12438.18549-.11935A.01364.01364,0,0,0,23.80145,7.88317ZM23.05087,7.267a.43313.43313,0,0,1-.33647-.161V7.10455l-.0302-.03811A.42859.42859,0,0,1,23.35,6.52651l.03595.0453a.42875.42875,0,0,1-.335.69522Zm-.04458-.46228.05177.02444.00143-.00072-.00862-.00288Zm-2.36247-.458A1.79972,1.79972,0,0,1,18.845,4.5494a1.75908,1.75908,0,0,1,.07477-.50974.4562.4562,0,0,1-.07909-.02947l.05177-.22-.09634.19843a.42831.42831,0,0,1,.37241-.77144.57788.57788,0,0,1,.15817.11,1.79629,1.79629,0,0,1,2.89306,2.08424.42086.42086,0,0,1,.23294.12078.44383.44383,0,0,1,.03738.64131.43824.43824,0,0,1-.60535.00359l-.04026-.041a.42061.42061,0,0,1-.10209-.16536A1.78647,1.78647,0,0,1,20.64382,6.34677Zm1.51842-.51189-.00431.00935ZM20.64382,3.99581a.554.554,0,1,0,.55215.55359A.55383.55383,0,0,0,20.64382,3.99581Zm-2.8111-.43928a.4518.4518,0,0,1-.14091-.023l-.05033-.018a.4286.4286,0,0,1,.28183-.80954.4682.4682,0,0,1,.29477.2351.43026.43026,0,0,1,.01869.32712A.42583.42583,0,0,1,17.83272,3.55653Zm-.0532-.43425-.00144.00072-.06326.184Zm-1.19346.07405-.0949-.01006.00144-.22647-.046.2164a.42984.42984,0,0,1-.14379-.78006.41525.41525,0,0,1,.325-.05823l.05321.01294a.42792.42792,0,0,1-.09491.84548Zm-.046-.44934L16.53,2.76856l.00143.00072Zm.00144-.00288.04745.01079.04314-.18909Zm-1.23372.23941-.0949-.01006.00144-.22647-.04745.21568a.42822.42822,0,0,1-.32784-.509.41143.41143,0,0,1,.46444-.33288.492.492,0,0,1,.25163.08412l.04457.04026a.327.327,0,0,1,.06615.07621.578.578,0,0,1,.05895.138l.00863.12941-.01294.082a.28988.28988,0,0,1-.02157.05536l-.03739.06327A.4043.4043,0,0,1,15.30777,2.98352Z"/>
    </g>
    <path class="cls-2" d="M17.30455,6.02245a8.62983,8.62983,0,0,0-8.08809.78794.20769.20769,0,0,0-.032.31991.19464.19464,0,0,0,.02481.02108A30.34538,30.34538,0,0,0,12.38952,9.172a19.45555,19.45555,0,0,0-2.94338,7.10874c-.63018-.182-1.26509-.34758-1.90559-.48807a10.33516,10.33516,0,0,1,.7341-3.93909l1.104.45728a.20761.20761,0,0,0,.27961-.24692L8.59686,8.20346A.20755.20755,0,0,0,8.29415,8.078L4.81371,10.0571a.20755.20755,0,0,0,.02309.3724l1.10814.45885A8.61909,8.61909,0,0,0,10.6871,21.97451l.00846.00359a8.62915,8.62915,0,0,0,8.088-.78809.20837.20837,0,0,0,.09278-.16877.20431.20431,0,0,0-.08561-.17222,30.35094,30.35094,0,0,0-3.1803-2.02057,18.77778,18.77778,0,0,0,1.82567-3.405,18.7662,18.7662,0,0,0,1.11789-3.70363c.63014.182,1.265.34757,1.90541.488a10.33382,10.33382,0,0,1-.734,3.93908l-1.104-.45728a.20761.20761,0,0,0-.27961.24692l1.06154,3.86058a.20746.20746,0,0,0,.30284.12532l3.4803-1.97925a.2075.2075,0,0,0-.02323-.37225L22.055,17.11205a8.63516,8.63516,0,0,0-4.75048-11.0896Zm-.17662,9.04865-2.85654-1.18325,1.321-3.18928q1.25569.50992,2.56145.90684A18.19138,18.19138,0,0,1,17.12793,15.0711Zm-1.8837,3.559q-1.201-.64158-2.45217-1.17077l1.3204-3.18773L16.969,15.45478A18.2037,18.2037,0,0,1,15.24423,18.63006ZM12.076,21.98871a5.33166,5.33166,0,0,0,2.08411-1.38561,11.9508,11.9508,0,0,0,1.20841-1.43343,29.94112,29.94112,0,0,1,2.93035,1.83708A8.21163,8.21163,0,0,1,12.076,21.98871ZM12.632,17.8456c.80334.33946,1.59045.71983,2.36319,1.13072A11.47705,11.47705,0,0,1,13.867,20.30886c-1.04718,1.0427-2.05438,1.51511-2.81065,1.34076Zm-2.99887.70956a11.48934,11.48934,0,0,1,.14554-1.74753q1.25677.38442,2.47008.878l-1.57609,3.805C10.01511,21.079,9.63617,20.03311,9.63316,18.55516Zm-2.244-.70822a7.05134,7.05134,0,0,0,.86007,2.03274,8.23828,8.23828,0,0,1-1.84346-9.02517.20766.20766,0,0,0-.11242-.2713L5.388,10.20838,8.2672,8.571l.87814,3.19365L8.24,11.38951a.20766.20766,0,0,0-.2713.11242,10.76448,10.76448,0,0,0-.838,4.41055l-.00041.00095a.20365.20365,0,0,0,.00328.093A8.801,8.801,0,0,0,7.3892,17.84694Zm1.98705-1.1544A11.9454,11.9454,0,0,0,9.21789,18.556a5.69441,5.69441,0,0,0,.39885,2.26762,5.89942,5.89942,0,0,1-1.82532-3.0798A8.30033,8.30033,0,0,1,7.5562,16.223C8.16779,16.35945,8.77441,16.51765,9.37625,16.69254Zm1.49581-3.76322,2.8567,1.1833-1.321,3.18928Q11.152,16.792,9.84617,16.39508A18.20293,18.20293,0,0,1,10.87206,12.92932Zm1.88365-3.55894q1.20111.64161,2.45238,1.1708l-1.3204,3.18774-2.8567-1.1833A18.20292,18.20292,0,0,1,12.75571,9.37038ZM15.924,6.01182A5.331,5.331,0,0,0,13.83989,7.3973a11.95225,11.95225,0,0,0-1.20847,1.43345,29.93519,29.93519,0,0,1-2.93015-1.837A8.21154,8.21154,0,0,1,15.924,6.01182ZM15.3681,10.1549c-.80341-.33947-1.59059-.71987-2.36341-1.1308A11.47327,11.47327,0,0,1,14.133,7.69155c1.0472-1.04272,2.05436-1.51513,2.81078-1.34064ZM17.58087,6.702a3.94594,3.94594,0,0,1,.78594,2.74325,11.4861,11.4861,0,0,1-.14545,1.74763q-1.2567-.38439-2.47-.878l1.57785-3.80926A1.399,1.399,0,0,1,17.58087,6.702Zm2.62768,3.55457a8.30392,8.30392,0,0,1,.23515,1.52085c-.6115-.1364-1.218-.29458-1.81988-.46943a11.94193,11.94193,0,0,0,.1584-1.86345,5.71035,5.71035,0,0,0-.39639-2.26585A5.8981,5.8981,0,0,1,20.20855,10.25656ZM19.7507,8.12072a8.2383,8.2383,0,0,1,1.84346,9.02517.20766.20766,0,0,0,.11242.2713l.90553.375-2.87919,1.63741-.87829-3.1938.90539.37512a.20766.20766,0,0,0,.2713-.11242,10.76512,10.76512,0,0,0,.838-4.41054l.00041-.00095a.2042.2042,0,0,0-.00328-.0928,8.799,8.799,0,0,0-.25569-1.84072A7.05146,7.05146,0,0,0,19.7507,8.12072Z"/>
  </g>
</svg>
