<?xml version="1.0" encoding="UTF-8"?>
<svg id="Layer_1" data-name="Layer 1" xmlns="http://www.w3.org/2000/svg" viewBox="0 0 216 216">
  <defs>
    <style>
      .cls-1 {
        fill: #fdb71a;
        stroke-width: 0px;
      }
    </style>
  </defs>
  <path class="cls-1" d="m136.58,179.4l-5.88-12.21,1.97-.73c27.4-10.19,45.1-33.59,45.1-59.62s-17.7-49.43-45.1-59.63l-1.97-.73,5.88-12.2,1.58.49c36.66,11.4,61.29,40.36,61.29,72.07s-24.63,60.68-61.29,72.07l-1.58.49Zm-.62-10.1l2.63,5.45c34.18-11.22,57.02-38.34,57.02-67.91s-22.84-56.69-57.02-67.91l-2.63,5.45c27.79,11.13,45.63,35.44,45.63,62.46s-17.84,51.33-45.63,62.46Zm-55.31,10.1l-1.58-.49c-36.66-11.4-61.29-40.36-61.29-72.07s24.63-60.68,61.29-72.07l1.58-.49,5.88,12.2-1.97.73c-27.39,10.19-45.1,33.6-45.1,59.63s17.7,49.43,45.1,59.62l1.97.73-5.88,12.21Zm-2.01-140.48c-34.18,11.22-57.02,38.34-57.02,67.91s22.84,56.69,57.02,67.91l2.63-5.45c-27.79-11.13-45.63-35.44-45.63-62.46s17.84-51.33,45.63-62.46l-2.63-5.45Zm10.66,122.53l-1.58-.49c-27.5-8.55-45.98-30.31-45.98-54.13s18.48-45.58,45.98-54.13l1.58-.49,5.38,11.16-1.97.73c-19.65,7.31-32.34,24.08-32.34,42.73s12.7,35.42,32.34,42.72l1.97.73-5.38,11.16Zm-2.01-104.59c-25.02,8.37-41.71,28.28-41.71,49.97s16.69,41.6,41.71,49.97l2.13-4.41c-20.05-8.24-32.88-25.92-32.88-45.55s12.84-37.31,32.88-45.55l-2.13-4.41Zm40.64,104.59l-5.38-11.16,1.97-.73c19.65-7.31,32.35-24.08,32.35-42.72s-12.7-35.42-32.35-42.73l-1.97-.73,5.38-11.16,1.58.49c27.5,8.55,45.98,30.3,45.98,54.13s-18.48,45.58-45.98,54.13l-1.58.49Zm-.12-9.07l2.13,4.41c25.02-8.37,41.71-28.28,41.71-49.97s-16.69-41.6-41.71-49.97l-2.13,4.41c20.05,8.24,32.89,25.92,32.89,45.55s-12.84,37.31-32.89,45.55Zm-7.18-6.07l-4.5-9.34,1.77-.82c11.54-5.34,19-16.85,19-29.33s-7.46-23.99-19-29.33l-1.77-.82,4.5-9.34,1.58.49c19.77,6.15,33.06,21.82,33.06,39s-13.29,32.85-33.06,38.99l-1.58.49Zm.62-7.54l1.39,2.88c17.29-5.96,28.8-19.78,28.8-34.82s-11.51-28.86-28.8-34.82l-1.39,2.88c11.9,6.28,19.48,18.62,19.48,31.94s-7.58,25.66-19.48,31.94Zm-24.65,7.54l-1.58-.49c-19.77-6.15-33.06-21.82-33.06-38.99s13.29-32.85,33.06-38.99l1.58-.49,4.5,9.34-1.77.82c-11.54,5.34-19,16.85-19,29.33s7.46,23.99,19,29.33l1.77.82-4.5,9.34Zm-2.01-74.31c-17.29,5.96-28.8,19.78-28.8,34.82s11.51,28.86,28.8,34.82l1.39-2.88c-11.9-6.28-19.48-18.62-19.48-31.94s7.58-25.66,19.48-31.94l-1.39-2.88Z"/>
</svg>