<?xml version="1.0" encoding="UTF-8"?>
<svg id="Layer_1" data-name="Layer 1" xmlns="http://www.w3.org/2000/svg" viewBox="0 0 216 216">
  <defs>
    <style>
      .cls-1 {
        fill: #fdb71a;
        stroke-width: 0px;
      }
    </style>
  </defs>
  <path class="cls-1" d="m112.15,116.53h3.98v15.87h3.65v-19.33h-7.63v3.46Zm-9.31-25.57h3.98v15.87h3.65v-19.33h-7.63v3.46Zm-22.02,25.57h3.98v15.87h3.65v-19.33h-7.63v3.46Zm16.68-13.3c.56-1.43.85-3.42.85-5.99s-.28-4.52-.83-5.94c-.56-1.42-1.34-2.48-2.36-3.17-1.02-.69-2.24-1.04-3.65-1.04-2.17,0-3.87.88-5.08,2.63-1.09,1.59-1.64,4.16-1.64,7.71,0,2.54.28,4.5.84,5.87.56,1.38,1.34,2.4,2.33,3.07.99.67,2.21,1.01,3.67,1.01s2.66-.34,3.61-1.01c.95-.67,1.71-1.72,2.28-3.15Zm-3.79-.59c-.52.88-1.23,1.33-2.12,1.33s-1.68-.47-2.26-1.4c-.58-.93-.87-2.62-.87-5.06,0-1.87.13-3.3.38-4.27.25-.97.62-1.66,1.1-2.06.48-.4,1.03-.6,1.65-.6.91,0,1.65.48,2.22,1.44.57.96.86,2.72.86,5.26s-.32,4.29-.96,5.36Zm10.89,11.05c-1.02-.69-2.24-1.04-3.65-1.04-2.17,0-3.87.88-5.08,2.63-1.09,1.59-1.64,4.16-1.64,7.71,0,2.54.28,4.5.84,5.87.56,1.38,1.34,2.4,2.33,3.07.99.67,2.21,1.01,3.67,1.01s2.66-.34,3.61-1.01c.95-.67,1.71-1.72,2.28-3.15.56-1.43.85-3.42.85-5.99s-.28-4.52-.83-5.94c-.56-1.42-1.34-2.48-2.36-3.17Zm-1.44,14.52c-.52.88-1.23,1.33-2.12,1.33s-1.68-.47-2.26-1.4c-.58-.93-.87-2.62-.87-5.06,0-1.87.13-3.3.38-4.27.25-.97.62-1.66,1.1-2.06.48-.4,1.03-.6,1.65-.6.91,0,1.65.48,2.22,1.44.57.96.86,2.72.86,5.26s-.32,4.29-.96,5.36Zm24.22-40.08c-1.02-.69-2.24-1.04-3.65-1.04-2.17,0-3.87.88-5.08,2.63-1.09,1.59-1.64,4.16-1.64,7.71,0,2.54.28,4.5.84,5.87.56,1.38,1.34,2.4,2.33,3.07.99.67,2.21,1.01,3.67,1.01s2.66-.34,3.61-1.01c.95-.67,1.71-1.72,2.28-3.15.56-1.43.85-3.42.85-5.99s-.28-4.52-.83-5.94c-.56-1.42-1.34-2.48-2.36-3.17Zm-1.44,14.52c-.52.88-1.23,1.33-2.12,1.33s-1.68-.47-2.26-1.4c-.58-.93-.87-2.62-.87-5.06,0-1.87.13-3.3.38-4.27.25-.97.62-1.66,1.1-2.06.48-.4,1.03-.6,1.65-.6.91,0,1.65.48,2.22,1.44.57.96.86,2.72.86,5.26s-.32,4.29-.96,5.36Zm67.35-12.38L127.93,24.9c-5.32-5.32-12.4-8.26-19.93-8.26v4.03-4.03h0c-7.53,0-14.61,2.93-19.93,8.26L22.7,90.27c-10.99,10.99-10.99,28.87,0,39.87l65.37,65.37c5.32,5.32,12.4,8.26,19.93,8.26s14.61-2.93,19.93-8.26l65.37-65.37c10.99-10.99,10.99-28.87,0-39.87Zm-2.85,37.02l-65.37,65.37c-4.72,4.72-10.9,7.08-17.09,7.08s-12.37-2.36-17.09-7.08L25.54,127.28c-9.44-9.44-9.44-24.73,0-34.17L90.92,27.74c4.72-4.72,10.9-7.08,17.09-7.08,6.18,0,12.37,2.36,17.09,7.08l65.37,65.37c9.44,9.44,9.44,24.73,0,34.17ZM121.09,43.73c-3.5-3.5-8.15-5.43-13.1-5.43s-9.6,1.93-13.1,5.43l-53.38,53.38c-3.5,3.5-5.43,8.15-5.43,13.1s1.93,9.6,5.43,13.1l53.38,53.38c3.5,3.5,8.15,5.43,13.1,5.43s9.6-1.93,13.1-5.43l53.38-53.38c3.5-3.5,5.43-8.15,5.43-13.1s-1.93-9.6-5.43-13.1l-53.38-53.38Zm50.53,76.73l-53.38,53.38c-2.83,2.83-6.54,4.25-10.25,4.25s-7.42-1.42-10.25-4.25l-53.38-53.38c-5.66-5.66-5.66-14.84,0-20.5l53.38-53.38c2.83-2.83,6.54-4.25,10.25-4.25s7.42,1.42,10.25,4.25l53.38,53.38c5.66,5.66,5.66,14.84,0,20.5Zm-53.93-53.84c-2.59-2.59-6.02-4.01-9.68-4.01h0c-3.66,0-7.1,1.42-9.68,4.01l-33.91,33.91c-5.34,5.34-5.34,14.02,0,19.36l33.9,33.91c2.59,2.59,6.02,4.01,9.68,4.01s7.1-1.42,9.68-4.01l33.91-33.91c5.34-5.34,5.34-14.02,0-19.36l-33.9-33.91Zm-43.95,56.9l-5.53-5.53c.22-.54.49-.96.82-1.23.48-.4,1.03-.6,1.65-.6.91,0,1.65.48,2.22,1.44.57.96.86,2.72.86,5.26,0,.24-.02.43-.02.66Zm60.78,4.7c-.52.88-1.23,1.33-2.12,1.33s-1.68-.47-2.26-1.4c-.58-.93-.87-2.62-.87-5.06,0-1.87.13-3.3.38-4.27.25-.97.62-1.66,1.1-2.06.48-.4,1.03-.6,1.65-.6.91,0,1.65.48,2.22,1.44.57.96.86,2.72.86,5.26s-.32,4.29-.96,5.36Zm16.58-15.13h-7.44v3.46h3.98v1.62l-8.84,8.84c.23-1.17.36-2.55.36-4.18,0-2.54-.28-4.52-.83-5.94-.56-1.42-1.34-2.48-2.36-3.17-1.02-.69-2.24-1.04-3.65-1.04-2.17,0-3.87.88-5.08,2.63-1.09,1.59-1.64,4.16-1.64,7.71,0,2.54.28,4.5.84,5.87.56,1.38,1.34,2.4,2.33,3.07.99.67,2.21,1.01,3.67,1.01.16,0,.3-.02.45-.03l-18.02,18.02c-1.89,1.89-4.36,2.83-6.83,2.83s-4.95-.94-6.83-2.83l-24.07-24.07c.21-1.15.33-2.49.33-4.06,0-2.54-.28-4.52-.83-5.94-.56-1.42-1.34-2.48-2.36-3.17-1.02-.69-2.24-1.04-3.65-1.04-2.04,0-3.64.8-4.84,2.35-2.12-3.69-1.64-8.48,1.51-11.63l5.85-5.85v9.32h3.65v-12.97l24.41-24.41c1.89-1.89,4.36-2.83,6.83-2.83,2.47,0,4.95.94,6.83,2.83l19.93,19.93v1.57h1.57l2.41,2.41v13.46h3.65v-9.81l6.34,6.34c2.63,2.63,3.38,6.39,2.35,9.71Z"/>
</svg>