<?xml version="1.0" encoding="UTF-8" standalone="no"?>
<svg
   xmlns:dc="http://purl.org/dc/elements/1.1/"
   xmlns:cc="http://creativecommons.org/ns#"
   xmlns:rdf="http://www.w3.org/1999/02/22-rdf-syntax-ns#"
   xmlns:svg="http://www.w3.org/2000/svg"
   xmlns="http://www.w3.org/2000/svg"
   xmlns:sodipodi="http://sodipodi.sourceforge.net/DTD/sodipodi-0.dtd"
   xmlns:inkscape="http://www.inkscape.org/namespaces/inkscape"
   version="1.1"
   id="svg2"
   xml:space="preserve"
   width="96"
   height="96"
   viewBox="0 0 96 96"
   sodipodi:docname="fam_platform.svg"
   inkscape:version="1.0 (4035a4fb49, 2020-05-01)"><metadata
     id="metadata8"><rdf:RDF><cc:Work
         rdf:about=""><dc:format>image/svg+xml</dc:format><dc:type
           rdf:resource="http://purl.org/dc/dcmitype/StillImage" /><dc:title /></cc:Work></rdf:RDF></metadata><defs
     id="defs6" /><sodipodi:namedview
     inkscape:document-rotation="0"
     pagecolor="#ffffff"
     bordercolor="#666666"
     borderopacity="1"
     objecttolerance="10"
     gridtolerance="10"
     guidetolerance="10"
     inkscape:pageopacity="0"
     inkscape:pageshadow="2"
     inkscape:window-width="1920"
     inkscape:window-height="1017"
     id="namedview4"
     showgrid="false"
     inkscape:zoom="4.4894367"
     inkscape:cx="41.333332"
     inkscape:cy="47.333332"
     inkscape:window-x="-8"
     inkscape:window-y="-8"
     inkscape:window-maximized="1"
     inkscape:current-layer="g10" /><g
     id="g10"
     inkscape:groupmode="layer"
     inkscape:label="ink_ext_XXXXXX"
     transform="matrix(1.3333333,0,0,-1.3333333,0,94.666667)"><g
       id="g12"
       transform="matrix(0.09471864,0,0,0.09471864,6.1341269,1.86818)"><path
         d="m 305.59,701.68 -141.641,-79.879 -7.539,-13.75 0.231,-82.973 -0.782,-14.297 L 14.2617,430.859 6.67969,417.148 6.91016,185.781 148.129,106.719 163.789,85.1211 304.961,6.01953 320.98,5.78125 462.422,85.5898 l 12.777,7.8907 136.949,75.3905 -0.238,158.899 -8.039,13.519 -148.711,83.16 -0.121,184.531 -8.008,13.481 z m 0.039,-17.809 129.801,-72.742 3.75,-6.328 0.121,-180.391 v -8.898 l 7.969,-4.461 145.031,-81.09 3.75,-6.332 0.238,-145.738 -128.91,-70.981 -0.348,-0.191 -0.312,-0.239 -12.5,-7.6909 -137.379,-77.5 -7.5,0.1211 -134.649,75.4296 -13.64,18.7812 -1.992,2.777 -3.039,1.68 -133.2505,74.652 -0.2304,218.551 3.5507,6.449 137.6992,77.692 7.422,4.18 0.469,8.32 0.781,14.34 0.039,0.429 v 0.43 l -0.23,79.098 3.55,6.402 129.809,73.25"
         style="fill:#f9af0f;fill-opacity:1;fill-rule:nonzero;stroke:none"
         id="path14" /><path
         d="m 305.469,524.609 -144.489,80.981 7.891,13.39 136.559,-76.558 134.84,76.527 7.968,-13.328 -142.769,-81.012"
         style="fill:#f9af0f;fill-opacity:1;fill-rule:nonzero;stroke:none"
         id="path16" /><path
         d="m 296.949,285.32 h 15.8594 V 536.371 H 296.949 Z"
         style="fill:#f9af0f;fill-opacity:1;fill-rule:nonzero;stroke:none"
         id="path18" /><path
         d="m 303.949,19.8906 h 15.8594 v 91.4805 H 303.949 Z"
         style="fill:#f9af0f;fill-opacity:1;fill-rule:nonzero;stroke:none"
         id="path20" /><path
         d="m 147.379,113.281 h 15.8594 V 338.59 H 147.379 Z"
         style="fill:#f9af0f;fill-opacity:1;fill-rule:nonzero;stroke:none"
         id="path22" /><path
         d="m 454.648,95.7813 h 15.8633 v 158.359 H 454.648 Z"
         style="fill:#f9af0f;fill-opacity:1;fill-rule:nonzero;stroke:none"
         id="path24" /><path
         d="m 299.219,429.34 -139.918,76.75 7.769,13.48 139.961,-76.8 -7.812,-13.43"
         style="fill:#f9af0f;fill-opacity:1;fill-rule:nonzero;stroke:none"
         id="path26" /><path
         d="m 155.98,333.051 -145.5894,81.289 7.8907,13.39 137.5777,-76.789 145,83.278 8.051,-13.321 -152.93,-87.847"
         style="fill:#f9af0f;fill-opacity:1;fill-rule:nonzero;stroke:none"
         id="path28" /><path
         d="m 462.621,244.73 -161.019,87.11 7.699,13.512 153.199,-82.891 137.969,76.879 7.89,-13.399 -145.738,-81.211"
         style="fill:#f9af0f;fill-opacity:1;fill-rule:nonzero;stroke:none"
         id="path30" /><path
         d="m 311.762,336.449 -7.934,13.352 139.531,78.359 7.891,-13.39 -139.488,-78.321"
         style="fill:#f9af0f;fill-opacity:1;fill-rule:nonzero;stroke:none"
         id="path32" /><path
         d="m 171.211,195.941 139.449,-80.711 137.969,80.391 -144.328,80.43 z m 135.43,-96.3316 -154.801,89.5316 -0.121,13.199 148.242,89.262 8.129,0.16 160.191,-89.262 0.117,-13.32 -153.628,-89.5316 -8.129,-0.039"
         style="fill:#f9af0f;fill-opacity:1;fill-rule:nonzero;stroke:none"
         id="path34" /></g></g></svg>
