<?xml version="1.0" encoding="UTF-8"?>
<svg id="Layer_1" data-name="Layer 1" xmlns="http://www.w3.org/2000/svg" viewBox="0 0 216 216">
  <defs>
    <style>
      .cls-1 {
        fill: #fdb71a;
        stroke-width: 0px;
      }
    </style>
  </defs>
  <path class="cls-1" d="m197.85,106.95h-6.61c-.08-22.33-4.26-43.72-12.02-62.34l7.59-2.19c.24-.07.39-.41.35-.75-.05-.35-.28-.58-.52-.51l-7.92,2.28c-3.32-7.76-7.25-15.05-11.79-21.69-.52-.75-1.35-.75-1.86,0-.26.38-.39.87-.39,1.36s.13.99.39,1.36c4.15,6.07,7.78,12.71,10.88,19.76l-21.64,6.23c-3.06-7.27-6.71-14.08-10.94-20.27-.52-.75-1.35-.75-1.86,0-.26.38-.39.87-.39,1.36s.13.99.39,1.36c3.85,5.63,7.19,11.79,10.03,18.35l-21.42,6.17c-2.87-7.07-6.35-13.67-10.43-19.64-.52-.75-1.35-.75-1.86,0-.26.38-.39.87-.39,1.36s.13.99.39,1.36c3.7,5.4,6.88,11.35,9.54,17.71l-21.28,6.13c-2.72-7.14-6.13-13.78-10.19-19.72-.52-.75-1.35-.75-1.86,0-.26.38-.39.87-.39,1.36s.13.99.39,1.36c3.68,5.38,6.79,11.37,9.33,17.78l-14.03,4.04c-4.36-18.51-11.74-30.46-19.21-30.46-2.47,0-4.94,1.25-7.34,3.71l-.15.14c-2.48,2.09-24.5,20.75-33.04,30.68l-.62.72h-8.93l-.69.24c-1.01.4-2.17,1.54-3.27,3.29-8.54,13.5-8.54,46.68,0,60.17,1.4,2.22,2.66,3,3.29,3.27l.48.2,9.1.05.62.74c9.81,11.8,32.81,30.45,33.04,30.64l.18.16c2.42,2.45,4.88,3.7,7.32,3.7,7.47,0,14.84-11.95,19.2-30.46l14.03,4.04c-2.53,6.42-5.65,12.4-9.33,17.78-.26.38-.39.87-.39,1.36s.13.99.39,1.36.59.56.93.56.67-.19.93-.56c4.06-5.94,7.47-12.58,10.19-19.72l21.28,6.13c-2.66,6.36-5.85,12.31-9.55,17.71-.26.38-.39.87-.39,1.36s.13.99.39,1.36c.26.38.59.56.93.56s.67-.19.93-.56c4.08-5.97,7.57-12.57,10.44-19.64l21.42,6.17c-2.84,6.56-6.18,12.72-10.03,18.35-.26.38-.39.87-.39,1.36s.13.99.39,1.36c.26.38.59.56.93.56s.67-.19.93-.56c4.24-6.19,7.89-13,10.94-20.27l21.64,6.23c-3.1,7.05-6.73,13.69-10.88,19.76-.26.38-.39.87-.39,1.36s.13.99.39,1.36c.26.38.59.56.93.56s.67-.19.93-.56c4.54-6.64,8.47-13.92,11.79-21.69l8.35,2.4s.06.01.09.01c.21,0,.39-.21.43-.52.05-.35-.11-.69-.35-.75l-8.01-2.31c7.76-18.62,11.94-40.01,12.02-62.34h6.61c.24,0,.44-.29.44-.64s-.2-.64-.44-.64Zm-45.83-54.51c6.84,16.26,10.54,34.97,10.61,54.51h-23.2c-.07-17.23-3.16-33.75-8.88-48.33l21.47-6.18Zm-24.19,6.97c5.78,14.26,8.89,30.55,8.97,47.54h-23.1c-.07-14.68-2.55-28.81-7.18-41.4l21.31-6.14Zm-24.04,6.93c4.68,12.3,7.2,26.17,7.27,40.61h-17.67v-.02c-.03-9.91-.79-19.49-2.26-28.47l-.21-1.31c-.4-2.32-.85-4.56-1.33-6.73l14.2-4.09Zm-55.75,84.44c-7.2-6.59-12.22-11.79-14.94-15.47h0s-1-1.36-1-1.36h-10.34l-.61-1.07c-6.48-11.35-6.47-39.24,0-50.58l.61-1.07h10.33l1-1.35c2.17-2.94,7.17-8.01,14.84-15.06l5.15-4.73-1.8,7.06c-2.98,11.71-4.5,25.32-4.5,40.44s1.59,29.17,4.59,40.84l1.82,7.07-5.17-4.73Zm5.83-30.8c-.27-4.19-.41-8.24-.41-12.39s.13-8.18.41-12.38l.3-4.65,3.18,3.14c3.95,3.9,6.12,8.84,6.12,13.89,0,5.06-2.18,10-6.12,13.9l-3.18,3.14-.3-4.65Zm16.69,49.16l-.59.13-.56-.23c-.5-.2-1.32-.69-2.41-1.87-1.9-2.06-8.35-10.57-11.74-33.61l-.23-1.54,1.25-.78c8.8-5.49,13.85-14.11,13.85-23.65,0-9.53-5.05-18.15-13.85-23.65l-1.25-.78.23-1.54c3.39-23.04,9.84-31.56,11.74-33.62,1.06-1.16,1.88-1.65,2.37-1.86l.56-.24.59.13c5.49,1.19,16.19,23.99,16.19,61.55s-10.68,60.29-16.16,61.54Zm33.22-20.29l-14.2-4.09c.49-2.17.94-4.42,1.34-6.75l.21-1.28c1.47-8.98,2.23-18.56,2.26-28.48h0s17.67-.01,17.67-.01c-.07,14.44-2.6,28.31-7.27,40.61Zm24.04,6.93l-21.31-6.14c4.63-12.59,7.11-26.72,7.18-41.4h23.1c-.08,16.99-3.19,33.28-8.97,47.54Zm24.19,6.97l-21.47-6.18c5.72-14.57,8.8-31.1,8.88-48.32h23.2c-.08,19.55-3.77,38.25-10.62,54.51Zm24.42,7.03l-21.65-6.24c6.77-16.57,10.41-35.53,10.49-55.31h23.32c-.08,22.1-4.32,43.24-12.16,61.54Zm-11.16-62.83c-.08-19.78-3.72-38.74-10.49-55.31l21.65-6.24c7.84,18.3,12.08,39.44,12.16,61.54h-23.32Z"/>
</svg>