<svg width="575" height="166" viewBox="0 0 575 166" fill="none" xmlns="http://www.w3.org/2000/svg">
<g clip-path="url(#clip0_1_2)">
<rect width="575" height="166" fill="url(#paint0_linear_1_2)"/>
<path d="M54.0727 9H48.8285L41 28.1152H46.2404L54.0727 9Z" fill="#FFB71B"/>
<path d="M55.2683 9.60541L52.6387 16.0263L57.5915 28.1153H63.146L55.2683 9.60541Z" fill="black"/>
<path d="M72.6204 14.5091C71.682 14.5091 70.8383 14.6983 70.0891 15.0766C69.3399 15.455 68.7308 16.0074 68.2616 16.7263V14.8345H64.2811V28.1304H68.3675V20.6841C68.3675 19.7798 68.6248 19.0609 69.1394 18.5198C69.654 17.9787 70.335 17.7063 71.1826 17.7063C71.8864 17.7063 72.4047 17.9144 72.7415 18.3306C73.0744 18.7468 73.2409 19.4052 73.2409 20.3057V28.1304H77.3311V20.1128C77.3311 18.236 76.9414 16.8323 76.1657 15.9015C75.3901 14.9745 74.2058 14.5091 72.6204 14.5091Z" fill="black"/>
<path d="M87.1195 20.3019L84.872 19.7873C84.3309 19.6435 83.9525 19.4884 83.7331 19.3257C83.5174 19.163 83.4077 18.936 83.4077 18.6484C83.4077 18.2511 83.5855 17.9446 83.9487 17.729C84.3082 17.5133 84.8076 17.4036 85.4395 17.4036C86.8092 17.4036 88.2016 17.8917 89.6092 18.8641L90.6913 16.1549C89.9686 15.6328 89.1551 15.2242 88.2546 14.9366C87.3503 14.649 86.4233 14.5015 85.466 14.5015C84.346 14.5015 83.3471 14.6831 82.4731 15.0425C81.5991 15.402 80.9218 15.9014 80.4413 16.5333C79.9607 17.1652 79.7223 17.8954 79.7223 18.7279C79.7223 19.7759 80.025 20.6008 80.6304 21.2062C81.2358 21.8116 82.178 22.258 83.4606 22.5456L85.6249 23.0337C86.2909 23.1775 86.7487 23.3402 86.9908 23.5218C87.233 23.7034 87.3579 23.9569 87.3579 24.2785C87.3579 24.6418 87.18 24.9256 86.8281 25.1299C86.4763 25.338 85.9844 25.4401 85.3525 25.4401C84.4671 25.4401 83.5931 25.3039 82.7266 25.0353C81.8601 24.7629 81.0656 24.3845 80.3429 23.8964L79.2607 26.7115C79.9986 27.2336 80.8802 27.6385 81.9018 27.9185C82.9234 28.1985 84.0471 28.3385 85.273 28.3385C87.0589 28.3385 88.4627 27.9714 89.4843 27.2412C90.5021 26.5109 91.0129 25.5045 91.0129 24.2218C91.0129 23.1586 90.7026 22.3148 90.0783 21.6905C89.4654 21.0738 88.474 20.6084 87.1195 20.3019Z" fill="black"/>
<path d="M117.321 21.6981C116.697 21.0738 115.709 20.6121 114.355 20.3019L112.107 19.7873C111.566 19.6435 111.188 19.4884 110.972 19.3257C110.756 19.163 110.647 18.936 110.647 18.6484C110.647 18.2511 110.828 17.9446 111.188 17.729C111.547 17.5133 112.047 17.4036 112.678 17.4036C114.048 17.4036 115.441 17.8917 116.848 18.8641L117.93 16.1549C117.208 15.6328 116.398 15.2242 115.493 14.9366C114.593 14.649 113.662 14.5015 112.705 14.5015C111.585 14.5015 110.59 14.6831 109.712 15.0425C108.834 15.402 108.161 15.9014 107.68 16.5333C107.203 17.1652 106.961 17.8954 106.961 18.7279C106.961 19.7759 107.264 20.6008 107.869 21.2062C108.475 21.8116 109.417 22.258 110.7 22.5456L112.864 23.0337C113.534 23.1775 113.988 23.3402 114.23 23.5218C114.476 23.7034 114.597 23.9569 114.597 24.2785C114.597 24.6418 114.423 24.9256 114.067 25.1299C113.715 25.338 113.223 25.4401 112.591 25.4401C111.706 25.4401 110.832 25.3039 109.966 25.0353C109.099 24.7629 108.304 24.3845 107.582 23.8964L106.5 26.7115C107.241 27.2336 108.119 27.6385 109.141 27.9185C110.158 28.1985 111.282 28.3385 112.512 28.3385C114.298 28.3385 115.702 27.9714 116.723 27.2412C117.745 26.5109 118.252 25.5045 118.252 24.2218C118.252 23.1661 117.942 22.3224 117.321 21.6981Z" fill="black"/>
<path d="M102.296 14.8496L99.0987 22.6516L95.9053 14.8496H91.9551L97.1236 27.472L94.861 33H98.8074L106.246 14.8496H102.296Z" fill="black"/>
<path d="M36.3408 15L33.1436 22.802L29.9502 15H26L31.1685 27.6224L28.9059 33.1504H32.8523L40.291 15H36.3408Z" fill="black"/>
<path d="M18.0109 9C20.4393 9 22.2112 9.5285 23.3267 10.5855C24.4422 11.6338 25 13.0807 25 14.9261C25 15.7579 24.8756 16.5549 24.6267 17.3174C24.3779 18.0711 23.9703 18.7426 23.404 19.3317C22.8462 19.9209 22.0997 20.3887 21.1644 20.7353C20.229 21.0732 19.0749 21.2421 17.702 21.2421H15.9901V28H12V9H18.0109ZM17.805 12.301H15.9901V17.9412H17.303C18.0495 17.9412 18.6974 17.8415 19.2465 17.6423C19.7957 17.443 20.2205 17.1311 20.5208 16.7066C20.8211 16.282 20.9713 15.7362 20.9713 15.0691C20.9713 14.1334 20.7139 13.4403 20.199 12.9897C19.6842 12.5306 18.8861 12.301 17.805 12.301Z" fill="black"/>
<g opacity="0.3">
<ellipse opacity="0.6" cx="404" cy="60.5" rx="5" ry="5.5" fill="#60A5FA"/>
<ellipse opacity="0.9" cx="558" cy="66.5" rx="5" ry="5.5" fill="#60A5FA"/>
<ellipse opacity="0.9" cx="548" cy="115.5" rx="5" ry="5.5" fill="#60A5FA"/>
<circle cx="482.5" cy="86.5" r="4.5" fill="#93C5FD"/>
<circle cx="499.5" cy="3.5" r="4.5" fill="#93C5FD"/>
<circle cx="540" cy="28" r="3" fill="#D9D9D9"/>
<circle cx="457" cy="19" r="3" fill="#D9D9D9"/>
<circle cx="380" cy="94" r="3" fill="#D9D9D9"/>
<circle cx="375.5" cy="11.5" r="4.5" fill="#93C5FD"/>
<line x1="376.432" y1="15.7474" x2="400.432" y2="56.7474" stroke="#60A5FA"/>
<line x1="409.15" y1="61.523" x2="479.15" y2="83.523" stroke="#60A5FA"/>
<line x1="486.868" y1="85.5176" x2="552.868" y2="67.5176" stroke="#60A5FA"/>
<line x1="537.752" y1="26.4341" x2="502.752" y2="6.43412" stroke="#60A5FA"/>
<line x1="495.186" y1="4.46424" x2="460.186" y2="18.4642" stroke="#60A5FA"/>
<line x1="453.953" y1="19.4978" x2="379.953" y2="12.4978" stroke="#60A5FA"/>
<line x1="400.421" y1="64.2704" x2="382.421" y2="92.2704" stroke="#60A5FA"/>
<path d="M486.261 89L543.748 112.384" stroke="#60A5FA"/>
</g>
<g opacity="0.3">
<ellipse opacity="0.6" cx="322" cy="109.5" rx="5" ry="5.5" fill="#60A5FA"/>
<ellipse opacity="0.9" cx="476" cy="115.5" rx="5" ry="5.5" fill="#60A5FA"/>
<ellipse opacity="0.9" cx="466" cy="164.5" rx="5" ry="5.5" fill="#60A5FA"/>
<circle cx="400.5" cy="135.5" r="4.5" fill="#93C5FD"/>
<circle cx="417.5" cy="52.5" r="4.5" fill="#93C5FD"/>
<circle cx="458" cy="77" r="3" fill="#D9D9D9"/>
<circle cx="375" cy="68" r="3" fill="#D9D9D9"/>
<circle cx="298" cy="143" r="3" fill="#D9D9D9"/>
<circle cx="293.5" cy="60.5" r="4.5" fill="#93C5FD"/>
<line x1="294.432" y1="64.7474" x2="318.432" y2="105.747" stroke="#60A5FA"/>
<line x1="327.15" y1="110.523" x2="397.15" y2="132.523" stroke="#60A5FA"/>
<line x1="404.868" y1="134.518" x2="470.868" y2="116.518" stroke="#60A5FA"/>
<line x1="455.752" y1="75.4341" x2="420.752" y2="55.4341" stroke="#60A5FA"/>
<line x1="413.186" y1="53.4642" x2="378.186" y2="67.4642" stroke="#60A5FA"/>
<line x1="371.953" y1="68.4978" x2="297.953" y2="61.4978" stroke="#60A5FA"/>
<line x1="318.421" y1="113.27" x2="300.421" y2="141.27" stroke="#60A5FA"/>
<path d="M404.261 138L461.748 161.384" stroke="#60A5FA"/>
</g>
<g opacity="0.3">
<ellipse opacity="0.6" cx="322" cy="109.5" rx="5" ry="5.5" fill="#60A5FA"/>
<ellipse opacity="0.9" cx="476" cy="115.5" rx="5" ry="5.5" fill="#60A5FA"/>
<ellipse opacity="0.9" cx="466" cy="164.5" rx="5" ry="5.5" fill="#60A5FA"/>
<circle cx="400.5" cy="135.5" r="4.5" fill="#93C5FD"/>
<circle cx="417.5" cy="52.5" r="4.5" fill="#93C5FD"/>
<circle cx="458" cy="77" r="3" fill="#D9D9D9"/>
<circle cx="375" cy="68" r="3" fill="#D9D9D9"/>
<circle cx="298" cy="143" r="3" fill="#D9D9D9"/>
<circle cx="293.5" cy="60.5" r="4.5" fill="#93C5FD"/>
<line x1="294.432" y1="64.7474" x2="318.432" y2="105.747" stroke="#60A5FA"/>
<line x1="327.15" y1="110.523" x2="397.15" y2="132.523" stroke="#60A5FA"/>
<line x1="404.868" y1="134.518" x2="470.868" y2="116.518" stroke="#60A5FA"/>
<line x1="455.752" y1="75.4341" x2="420.752" y2="55.4341" stroke="#60A5FA"/>
<line x1="413.186" y1="53.4642" x2="378.186" y2="67.4642" stroke="#60A5FA"/>
<line x1="371.953" y1="68.4978" x2="297.953" y2="61.4978" stroke="#60A5FA"/>
<line x1="318.421" y1="113.27" x2="300.421" y2="141.27" stroke="#60A5FA"/>
<path d="M404.261 138L461.748 161.384" stroke="#60A5FA"/>
</g>
<g opacity="0.3">
<ellipse opacity="0.6" cx="320" cy="76.5" rx="5" ry="5.5" fill="#60A5FA"/>
<ellipse opacity="0.9" cx="474" cy="82.5" rx="5" ry="5.5" fill="#60A5FA"/>
<ellipse opacity="0.9" cx="464" cy="131.5" rx="5" ry="5.5" fill="#60A5FA"/>
<circle cx="398.5" cy="102.5" r="4.5" fill="#93C5FD"/>
<circle cx="415.5" cy="19.5" r="4.5" fill="#93C5FD"/>
<circle cx="456" cy="44" r="3" fill="#D9D9D9"/>
<circle cx="373" cy="35" r="3" fill="#D9D9D9"/>
<circle cx="296" cy="110" r="3" fill="#D9D9D9"/>
<circle cx="291.5" cy="27.5" r="4.5" fill="#93C5FD"/>
<line x1="292.432" y1="31.7474" x2="316.432" y2="72.7474" stroke="#60A5FA"/>
<line x1="325.15" y1="77.523" x2="395.15" y2="99.523" stroke="#60A5FA"/>
<line x1="402.868" y1="101.518" x2="468.868" y2="83.5176" stroke="#60A5FA"/>
<line x1="453.752" y1="42.4341" x2="418.752" y2="22.4341" stroke="#60A5FA"/>
<line x1="411.186" y1="20.4642" x2="376.186" y2="34.4642" stroke="#60A5FA"/>
<line x1="369.953" y1="35.4978" x2="295.953" y2="28.4978" stroke="#60A5FA"/>
<line x1="316.421" y1="80.2704" x2="298.421" y2="108.27" stroke="#60A5FA"/>
<path d="M402.261 105L459.748 128.384" stroke="#60A5FA"/>
</g>
<g opacity="0.3">
<circle cx="370.5" cy="126.5" r="4.5" fill="#93C5FD"/>
<circle cx="411" cy="151" r="3" fill="#D9D9D9"/>
<circle cx="328" cy="142" r="3" fill="#D9D9D9"/>
<circle cx="246.5" cy="134.5" r="4.5" fill="#93C5FD"/>
<line x1="247.432" y1="138.747" x2="271.432" y2="179.747" stroke="#60A5FA"/>
<line x1="408.752" y1="149.434" x2="373.752" y2="129.434" stroke="#60A5FA"/>
<line x1="366.186" y1="127.464" x2="331.186" y2="141.464" stroke="#60A5FA"/>
<line x1="324.953" y1="142.498" x2="250.953" y2="135.498" stroke="#60A5FA"/>
</g>
<ellipse opacity="0.6" cx="395" cy="103.5" rx="5" ry="5.5" fill="#60A5FA"/>
<ellipse opacity="0.9" cx="549" cy="109.5" rx="5" ry="5.5" fill="#60A5FA"/>
<ellipse opacity="0.9" cx="539" cy="158.5" rx="5" ry="5.5" fill="#60A5FA"/>
<circle cx="473.5" cy="129.5" r="4.5" fill="#93C5FD"/>
<circle cx="490.5" cy="46.5" r="4.5" fill="#93C5FD"/>
<circle cx="531" cy="71" r="3" fill="#D9D9D9"/>
<circle cx="448" cy="62" r="3" fill="#D9D9D9"/>
<circle cx="371" cy="137" r="3" fill="#D9D9D9"/>
<circle cx="366.5" cy="54.5" r="4.5" fill="#93C5FD"/>
<line x1="367.432" y1="58.7474" x2="391.432" y2="99.7474" stroke="#60A5FA"/>
<line x1="400.15" y1="104.523" x2="470.15" y2="126.523" stroke="#60A5FA"/>
<line x1="477.868" y1="128.518" x2="543.868" y2="110.518" stroke="#60A5FA"/>
<line x1="528.752" y1="69.4341" x2="493.752" y2="49.4341" stroke="#60A5FA"/>
<line x1="486.186" y1="47.4642" x2="451.186" y2="61.4642" stroke="#60A5FA"/>
<line x1="444.953" y1="62.4978" x2="370.953" y2="55.4978" stroke="#60A5FA"/>
<line x1="391.421" y1="107.27" x2="373.421" y2="135.27" stroke="#60A5FA"/>
<path d="M477.261 132L534.748 155.384" stroke="#60A5FA"/>
<g opacity="0.1">
<ellipse opacity="0.6" cx="355" cy="104.5" rx="5" ry="5.5" fill="#60A5FA"/>
<ellipse opacity="0.9" cx="509" cy="110.5" rx="5" ry="5.5" fill="#60A5FA"/>
<ellipse opacity="0.9" cx="499" cy="159.5" rx="5" ry="5.5" fill="#60A5FA"/>
<circle cx="433.5" cy="130.5" r="4.5" fill="#93C5FD"/>
<circle cx="450.5" cy="47.5" r="4.5" fill="#93C5FD"/>
<circle cx="491" cy="72" r="3" fill="#D9D9D9"/>
<circle cx="408" cy="63" r="3" fill="#D9D9D9"/>
<circle cx="331" cy="138" r="3" fill="#D9D9D9"/>
<circle cx="326.5" cy="55.5" r="4.5" fill="#93C5FD"/>
<line x1="327.432" y1="59.7474" x2="351.432" y2="100.747" stroke="#60A5FA"/>
<line x1="360.15" y1="105.523" x2="430.15" y2="127.523" stroke="#60A5FA"/>
<line x1="437.868" y1="129.518" x2="503.868" y2="111.518" stroke="#60A5FA"/>
<line x1="488.752" y1="70.4341" x2="453.752" y2="50.4341" stroke="#60A5FA"/>
<line x1="446.186" y1="48.4642" x2="411.186" y2="62.4642" stroke="#60A5FA"/>
<line x1="404.953" y1="63.4978" x2="330.953" y2="56.4978" stroke="#60A5FA"/>
<line x1="351.421" y1="108.27" x2="333.421" y2="136.27" stroke="#60A5FA"/>
<path d="M437.261 133L494.748 156.384" stroke="#60A5FA"/>
</g>
<g opacity="0.1">
<ellipse opacity="0.6" cx="315" cy="60.5" rx="5" ry="5.5" fill="#60A5FA"/>
<ellipse opacity="0.9" cx="469" cy="66.5" rx="5" ry="5.5" fill="#60A5FA"/>
<ellipse opacity="0.9" cx="459" cy="115.5" rx="5" ry="5.5" fill="#60A5FA"/>
<circle cx="393.5" cy="86.5" r="4.5" fill="#93C5FD"/>
<circle cx="410.5" cy="3.5" r="4.5" fill="#93C5FD"/>
<circle cx="451" cy="28" r="3" fill="#D9D9D9"/>
<circle cx="368" cy="19" r="3" fill="#D9D9D9"/>
<circle cx="291" cy="94" r="3" fill="#D9D9D9"/>
<circle cx="286.5" cy="11.5" r="4.5" fill="#93C5FD"/>
<line x1="287.432" y1="15.7474" x2="311.432" y2="56.7474" stroke="#60A5FA"/>
<line x1="320.15" y1="61.523" x2="390.15" y2="83.523" stroke="#60A5FA"/>
<line x1="397.868" y1="85.5176" x2="463.868" y2="67.5176" stroke="#60A5FA"/>
<line x1="448.752" y1="26.4341" x2="413.752" y2="6.43412" stroke="#60A5FA"/>
<line x1="406.186" y1="4.46424" x2="371.186" y2="18.4642" stroke="#60A5FA"/>
<line x1="364.953" y1="19.4978" x2="290.953" y2="12.4978" stroke="#60A5FA"/>
<line x1="311.421" y1="64.2704" x2="293.421" y2="92.2704" stroke="#60A5FA"/>
<path d="M397.261 89L454.748 112.384" stroke="#60A5FA"/>
</g>
<g opacity="0.1">
<ellipse opacity="0.6" cx="253" cy="96.5" rx="5" ry="5.5" fill="#60A5FA"/>
<ellipse opacity="0.9" cx="407" cy="102.5" rx="5" ry="5.5" fill="#60A5FA"/>
<ellipse opacity="0.9" cx="397" cy="151.5" rx="5" ry="5.5" fill="#60A5FA"/>
<circle cx="331.5" cy="122.5" r="4.5" fill="#93C5FD"/>
<circle cx="348.5" cy="39.5" r="4.5" fill="#93C5FD"/>
<circle cx="389" cy="64" r="3" fill="#D9D9D9"/>
<circle cx="306" cy="55" r="3" fill="#D9D9D9"/>
<circle cx="229" cy="130" r="3" fill="#D9D9D9"/>
<circle cx="224.5" cy="47.5" r="4.5" fill="#93C5FD"/>
<line x1="225.432" y1="51.7474" x2="249.432" y2="92.7474" stroke="#60A5FA"/>
<line x1="258.15" y1="97.523" x2="328.15" y2="119.523" stroke="#60A5FA"/>
<line x1="335.868" y1="121.518" x2="401.868" y2="103.518" stroke="#60A5FA"/>
<line x1="386.752" y1="62.4341" x2="351.752" y2="42.4341" stroke="#60A5FA"/>
<line x1="344.186" y1="40.4642" x2="309.186" y2="54.4642" stroke="#60A5FA"/>
<line x1="302.953" y1="55.4978" x2="228.953" y2="48.4978" stroke="#60A5FA"/>
<line x1="249.421" y1="100.27" x2="231.421" y2="128.27" stroke="#60A5FA"/>
<path d="M335.261 125L392.748 148.384" stroke="#60A5FA"/>
</g>
<g opacity="0.1">
<ellipse opacity="0.6" cx="310" cy="135.5" rx="5" ry="5.5" fill="#60A5FA"/>
<ellipse opacity="0.9" cx="464" cy="141.5" rx="5" ry="5.5" fill="#60A5FA"/>
<circle cx="388.5" cy="161.5" r="4.5" fill="#93C5FD"/>
<circle cx="405.5" cy="78.5" r="4.5" fill="#93C5FD"/>
<circle cx="446" cy="103" r="3" fill="#D9D9D9"/>
<circle cx="363" cy="94" r="3" fill="#D9D9D9"/>
<circle cx="281.5" cy="86.5" r="4.5" fill="#93C5FD"/>
<line x1="282.432" y1="90.7474" x2="306.432" y2="131.747" stroke="#60A5FA"/>
<line x1="315.15" y1="136.523" x2="385.15" y2="158.523" stroke="#60A5FA"/>
<line x1="392.868" y1="160.518" x2="458.868" y2="142.518" stroke="#60A5FA"/>
<line x1="443.752" y1="101.434" x2="408.752" y2="81.4341" stroke="#60A5FA"/>
<line x1="401.186" y1="79.4642" x2="366.186" y2="93.4642" stroke="#60A5FA"/>
<line x1="359.953" y1="94.4978" x2="285.953" y2="87.4978" stroke="#60A5FA"/>
<line x1="306.421" y1="139.27" x2="288.421" y2="167.27" stroke="#60A5FA"/>
<path d="M392.261 164L449.748 187.384" stroke="#60A5FA"/>
</g>
<g opacity="0.1">
<ellipse opacity="0.6" cx="375" cy="106.5" rx="5" ry="5.5" fill="#60A5FA"/>
<ellipse opacity="0.9" cx="529" cy="112.5" rx="5" ry="5.5" fill="#60A5FA"/>
<ellipse opacity="0.9" cx="519" cy="161.5" rx="5" ry="5.5" fill="#60A5FA"/>
<circle cx="453.5" cy="132.5" r="4.5" fill="#93C5FD"/>
<circle cx="470.5" cy="49.5" r="4.5" fill="#93C5FD"/>
<circle cx="511" cy="74" r="3" fill="#D9D9D9"/>
<circle cx="428" cy="65" r="3" fill="#D9D9D9"/>
<circle cx="351" cy="140" r="3" fill="#D9D9D9"/>
<circle cx="346.5" cy="57.5" r="4.5" fill="#93C5FD"/>
<line x1="347.432" y1="61.7474" x2="371.432" y2="102.747" stroke="#60A5FA"/>
<line x1="380.15" y1="107.523" x2="450.15" y2="129.523" stroke="#60A5FA"/>
<line x1="457.868" y1="131.518" x2="523.868" y2="113.518" stroke="#60A5FA"/>
<line x1="508.752" y1="72.4341" x2="473.752" y2="52.4341" stroke="#60A5FA"/>
<line x1="466.186" y1="50.4642" x2="431.186" y2="64.4642" stroke="#60A5FA"/>
<line x1="424.953" y1="65.4978" x2="350.953" y2="58.4978" stroke="#60A5FA"/>
<line x1="371.421" y1="110.27" x2="353.421" y2="138.27" stroke="#60A5FA"/>
<path d="M457.261 135L514.748 158.384" stroke="#60A5FA"/>
</g>
<g opacity="0.1">
<ellipse opacity="0.6" cx="451" cy="76.5" rx="5" ry="5.5" fill="#60A5FA"/>
<circle cx="529.5" cy="102.5" r="4.5" fill="#93C5FD"/>
<circle cx="546.5" cy="19.5" r="4.5" fill="#93C5FD"/>
<circle cx="504" cy="35" r="3" fill="#D9D9D9"/>
<circle cx="427" cy="110" r="3" fill="#D9D9D9"/>
<circle cx="422.5" cy="27.5" r="4.5" fill="#93C5FD"/>
<line x1="423.432" y1="31.7474" x2="447.432" y2="72.7474" stroke="#60A5FA"/>
<line x1="456.15" y1="77.523" x2="526.15" y2="99.523" stroke="#60A5FA"/>
<line x1="533.868" y1="101.518" x2="599.868" y2="83.5176" stroke="#60A5FA"/>
<line x1="584.752" y1="42.4341" x2="549.752" y2="22.4341" stroke="#60A5FA"/>
<line x1="542.186" y1="20.4642" x2="507.186" y2="34.4642" stroke="#60A5FA"/>
<line x1="500.953" y1="35.4978" x2="426.953" y2="28.4978" stroke="#60A5FA"/>
<line x1="447.421" y1="80.2704" x2="429.421" y2="108.27" stroke="#60A5FA"/>
<path d="M533.261 105L590.748 128.384" stroke="#60A5FA"/>
</g>
<g opacity="0.1">
<ellipse opacity="0.6" cx="488" cy="87.5" rx="5" ry="5.5" fill="#60A5FA"/>
<circle cx="566.5" cy="113.5" r="4.5" fill="#93C5FD"/>
<circle cx="541" cy="46" r="3" fill="#D9D9D9"/>
<circle cx="464" cy="121" r="3" fill="#D9D9D9"/>
<circle cx="459.5" cy="38.5" r="4.5" fill="#93C5FD"/>
<line x1="460.432" y1="42.7474" x2="484.432" y2="83.7474" stroke="#60A5FA"/>
<line x1="493.15" y1="88.523" x2="563.15" y2="110.523" stroke="#60A5FA"/>
<line x1="570.868" y1="112.518" x2="636.868" y2="94.5176" stroke="#60A5FA"/>
<line x1="579.186" y1="31.4642" x2="544.186" y2="45.4642" stroke="#60A5FA"/>
<line x1="537.953" y1="46.4978" x2="463.953" y2="39.4978" stroke="#60A5FA"/>
<line x1="484.421" y1="91.2704" x2="466.421" y2="119.27" stroke="#60A5FA"/>
<path d="M570.261 116L627.748 139.384" stroke="#60A5FA"/>
</g>
<g opacity="0.1">
<ellipse opacity="0.6" cx="498" cy="144.5" rx="5" ry="5.5" fill="#60A5FA"/>
<circle cx="551" cy="103" r="3" fill="#D9D9D9"/>
<circle cx="469.5" cy="95.5" r="4.5" fill="#93C5FD"/>
<line x1="470.432" y1="99.7474" x2="494.432" y2="140.747" stroke="#60A5FA"/>
<line x1="503.15" y1="145.523" x2="573.15" y2="167.523" stroke="#60A5FA"/>
<line x1="589.186" y1="88.4642" x2="554.186" y2="102.464" stroke="#60A5FA"/>
<line x1="547.953" y1="103.498" x2="473.953" y2="96.4978" stroke="#60A5FA"/>
<line x1="494.421" y1="148.27" x2="476.421" y2="176.27" stroke="#60A5FA"/>
</g>
<g opacity="0.1">
<ellipse opacity="0.6" cx="527" cy="156.5" rx="5" ry="5.5" fill="#60A5FA"/>
<circle cx="498.5" cy="107.5" r="4.5" fill="#93C5FD"/>
<line x1="499.432" y1="111.747" x2="523.432" y2="152.747" stroke="#60A5FA"/>
<line x1="532.15" y1="157.523" x2="602.15" y2="179.523" stroke="#60A5FA"/>
<line x1="576.953" y1="115.498" x2="502.953" y2="108.498" stroke="#60A5FA"/>
<line x1="523.421" y1="160.27" x2="505.421" y2="188.27" stroke="#60A5FA"/>
</g>
<g opacity="0.1">
<ellipse opacity="0.6" cx="437" cy="117.5" rx="5" ry="5.5" fill="#60A5FA"/>
<circle cx="515.5" cy="143.5" r="4.5" fill="#93C5FD"/>
<circle cx="532.5" cy="60.5" r="4.5" fill="#93C5FD"/>
<circle cx="573" cy="85" r="3" fill="#D9D9D9"/>
<circle cx="490" cy="76" r="3" fill="#D9D9D9"/>
<circle cx="413" cy="151" r="3" fill="#D9D9D9"/>
<circle cx="408.5" cy="68.5" r="4.5" fill="#93C5FD"/>
<line x1="409.432" y1="72.7474" x2="433.432" y2="113.747" stroke="#60A5FA"/>
<line x1="442.15" y1="118.523" x2="512.15" y2="140.523" stroke="#60A5FA"/>
<line x1="519.868" y1="142.518" x2="585.868" y2="124.518" stroke="#60A5FA"/>
<line x1="570.752" y1="83.4341" x2="535.752" y2="63.4341" stroke="#60A5FA"/>
<line x1="528.186" y1="61.4642" x2="493.186" y2="75.4642" stroke="#60A5FA"/>
<line x1="486.953" y1="76.4978" x2="412.953" y2="69.4978" stroke="#60A5FA"/>
<line x1="433.421" y1="121.27" x2="415.421" y2="149.27" stroke="#60A5FA"/>
<path d="M519.261 146L576.748 169.384" stroke="#60A5FA"/>
</g>
<path d="M93.4347 78V63.4545H98.8892C100.007 63.4545 100.944 63.6629 101.702 64.0795C102.464 64.4962 103.039 65.0691 103.428 65.7983C103.821 66.5227 104.017 67.3466 104.017 68.2699C104.017 69.2027 103.821 70.0312 103.428 70.7557C103.035 71.4801 102.455 72.0507 101.688 72.4673C100.92 72.8793 99.9759 73.0852 98.8537 73.0852H95.2386V70.919H98.4986C99.152 70.919 99.687 70.8054 100.104 70.5781C100.52 70.3509 100.828 70.0384 101.027 69.6406C101.231 69.2429 101.332 68.786 101.332 68.2699C101.332 67.7538 101.231 67.2992 101.027 66.9062C100.828 66.5133 100.518 66.2079 100.097 65.9901C99.6799 65.7675 99.1425 65.6562 98.4844 65.6562H96.0696V78H93.4347ZM107.79 82.0909C107.44 82.0909 107.115 82.0625 106.817 82.0057C106.524 81.9536 106.289 81.892 106.114 81.821L106.711 79.8182C107.085 79.9271 107.418 79.9792 107.712 79.9744C108.006 79.9697 108.264 79.8774 108.486 79.6974C108.713 79.5223 108.905 79.2287 109.061 78.8168L109.282 78.2273L105.326 67.0909H108.053L110.567 75.3295H110.681L113.202 67.0909H115.936L111.569 79.321C111.365 79.8987 111.095 80.3935 110.759 80.8054C110.423 81.2221 110.011 81.5393 109.523 81.7571C109.04 81.9796 108.462 82.0909 107.79 82.0909ZM118.33 78H115.517L120.638 63.4545H123.891L129.019 78H126.206L122.321 66.4375H122.208L118.33 78ZM118.422 72.2969H126.093V74.4134H118.422V72.2969ZM133.392 71.608V78H130.821V67.0909H133.278V68.9446H133.406C133.657 68.3338 134.057 67.8485 134.607 67.4886C135.161 67.1288 135.845 66.9489 136.659 66.9489C137.412 66.9489 138.068 67.1098 138.626 67.4318C139.19 67.7538 139.625 68.2202 139.933 68.831C140.246 69.4418 140.4 70.1828 140.395 71.054V78H137.824V71.4517C137.824 70.7225 137.634 70.152 137.256 69.7401C136.882 69.3281 136.363 69.1222 135.7 69.1222C135.25 69.1222 134.85 69.2216 134.5 69.4205C134.154 69.6146 133.882 69.8963 133.683 70.2656C133.489 70.6349 133.392 71.0824 133.392 71.608ZM151.631 69.9744L149.287 70.2301C149.221 69.9934 149.105 69.7708 148.939 69.5625C148.778 69.3542 148.56 69.1861 148.286 69.0582C148.011 68.9304 147.675 68.8665 147.277 68.8665C146.742 68.8665 146.292 68.9825 145.928 69.2145C145.568 69.4465 145.39 69.7472 145.395 70.1165C145.39 70.4337 145.506 70.6918 145.743 70.8906C145.984 71.0895 146.382 71.2528 146.936 71.3807L148.797 71.7784C149.829 72.0009 150.596 72.3537 151.098 72.8366C151.605 73.3196 151.86 73.9517 151.865 74.733C151.86 75.4195 151.659 76.0256 151.261 76.5511C150.868 77.072 150.321 77.4792 149.621 77.7727C148.92 78.0663 148.115 78.2131 147.206 78.2131C145.871 78.2131 144.796 77.9337 143.982 77.375C143.167 76.8116 142.682 76.0279 142.526 75.0241L145.033 74.7827C145.146 75.2751 145.388 75.6468 145.757 75.8977C146.126 76.1487 146.607 76.2741 147.199 76.2741C147.81 76.2741 148.3 76.1487 148.669 75.8977C149.043 75.6468 149.23 75.3366 149.23 74.9673C149.23 74.6548 149.109 74.3968 148.868 74.1932C148.631 73.9896 148.262 73.8333 147.76 73.7244L145.899 73.3338C144.853 73.116 144.079 72.7491 143.577 72.233C143.075 71.7121 142.826 71.054 142.831 70.2585C142.826 69.5862 143.009 69.0038 143.378 68.5114C143.752 68.0142 144.27 67.6307 144.933 67.3608C145.601 67.0862 146.37 66.9489 147.241 66.9489C148.52 66.9489 149.526 67.2211 150.26 67.7656C150.999 68.3101 151.455 69.0464 151.631 69.9744ZM155.583 82.0909C155.233 82.0909 154.908 82.0625 154.61 82.0057C154.317 81.9536 154.082 81.892 153.907 81.821L154.504 79.8182C154.878 79.9271 155.211 79.9792 155.505 79.9744C155.799 79.9697 156.057 79.8774 156.279 79.6974C156.506 79.5223 156.698 79.2287 156.854 78.8168L157.075 78.2273L153.119 67.0909H155.846L158.36 75.3295H158.474L160.995 67.0909H163.729L159.362 79.321C159.158 79.8987 158.888 80.3935 158.552 80.8054C158.216 81.2221 157.804 81.5393 157.316 81.7571C156.833 81.9796 156.255 82.0909 155.583 82.0909ZM174.131 69.9744L171.787 70.2301C171.721 69.9934 171.605 69.7708 171.439 69.5625C171.278 69.3542 171.06 69.1861 170.786 69.0582C170.511 68.9304 170.175 68.8665 169.777 68.8665C169.242 68.8665 168.792 68.9825 168.428 69.2145C168.068 69.4465 167.89 69.7472 167.895 70.1165C167.89 70.4337 168.006 70.6918 168.243 70.8906C168.484 71.0895 168.882 71.2528 169.436 71.3807L171.297 71.7784C172.329 72.0009 173.096 72.3537 173.598 72.8366C174.105 73.3196 174.36 73.9517 174.365 74.733C174.36 75.4195 174.159 76.0256 173.761 76.5511C173.368 77.072 172.821 77.4792 172.121 77.7727C171.42 78.0663 170.615 78.2131 169.706 78.2131C168.371 78.2131 167.296 77.9337 166.482 77.375C165.667 76.8116 165.182 76.0279 165.026 75.0241L167.533 74.7827C167.646 75.2751 167.888 75.6468 168.257 75.8977C168.626 76.1487 169.107 76.2741 169.699 76.2741C170.31 76.2741 170.8 76.1487 171.169 75.8977C171.543 75.6468 171.73 75.3366 171.73 74.9673C171.73 74.6548 171.609 74.3968 171.368 74.1932C171.131 73.9896 170.762 73.8333 170.26 73.7244L168.399 73.3338C167.353 73.116 166.579 72.7491 166.077 72.233C165.575 71.7121 165.326 71.054 165.331 70.2585C165.326 69.5862 165.509 69.0038 165.878 68.5114C166.252 68.0142 166.77 67.6307 167.433 67.3608C168.101 67.0862 168.87 66.9489 169.741 66.9489C171.02 66.9489 172.026 67.2211 172.76 67.7656C173.499 68.3101 173.955 69.0464 174.131 69.9744ZM181.56 78V63.4545H191.02V65.6634H184.195V69.6122H190.53V71.821H184.195V75.7912H191.077V78H181.56ZM198.353 78.2131C197.264 78.2131 196.329 77.974 195.548 77.4957C194.771 77.0175 194.172 76.357 193.751 75.5142C193.334 74.6667 193.126 73.6913 193.126 72.5881C193.126 71.4801 193.339 70.5024 193.765 69.6548C194.191 68.8026 194.792 68.1397 195.569 67.6662C196.35 67.188 197.273 66.9489 198.339 66.9489C199.224 66.9489 200.008 67.1122 200.69 67.4389C201.376 67.7609 201.923 68.2178 202.33 68.8097C202.737 69.3968 202.969 70.0833 203.026 70.8693H200.569C200.469 70.3437 200.233 69.9058 199.859 69.5554C199.489 69.2003 198.995 69.0227 198.374 69.0227C197.849 69.0227 197.387 69.1648 196.989 69.4489C196.592 69.7282 196.281 70.1307 196.059 70.6562C195.841 71.1818 195.732 71.8116 195.732 72.5455C195.732 73.2888 195.841 73.928 196.059 74.4631C196.277 74.9934 196.582 75.4029 196.975 75.6918C197.373 75.9759 197.839 76.1179 198.374 76.1179C198.753 76.1179 199.092 76.0469 199.39 75.9048C199.693 75.758 199.946 75.5473 200.15 75.2727C200.353 74.9981 200.493 74.6643 200.569 74.2713H203.026C202.965 75.0431 202.737 75.7273 202.344 76.3239C201.951 76.9157 201.416 77.3797 200.739 77.7159C200.062 78.0473 199.267 78.2131 198.353 78.2131ZM209.896 78.2131C208.831 78.2131 207.907 77.9787 207.126 77.5099C206.345 77.0412 205.739 76.3854 205.308 75.5426C204.882 74.6998 204.669 73.715 204.669 72.5881C204.669 71.4612 204.882 70.474 205.308 69.6264C205.739 68.7789 206.345 68.1207 207.126 67.652C207.907 67.1832 208.831 66.9489 209.896 66.9489C210.961 66.9489 211.885 67.1832 212.666 67.652C213.447 68.1207 214.051 68.7789 214.477 69.6264C214.908 70.474 215.123 71.4612 215.123 72.5881C215.123 73.715 214.908 74.6998 214.477 75.5426C214.051 76.3854 213.447 77.0412 212.666 77.5099C211.885 77.9787 210.961 78.2131 209.896 78.2131ZM209.91 76.1534C210.488 76.1534 210.971 75.9948 211.359 75.6776C211.747 75.3556 212.036 74.9247 212.225 74.3849C212.42 73.8452 212.517 73.2438 212.517 72.581C212.517 71.9134 212.42 71.3097 212.225 70.7699C212.036 70.2254 211.747 69.7921 211.359 69.4702C210.971 69.1482 210.488 68.9872 209.91 68.9872C209.318 68.9872 208.826 69.1482 208.433 69.4702C208.045 69.7921 207.753 70.2254 207.559 70.7699C207.37 71.3097 207.275 71.9134 207.275 72.581C207.275 73.2438 207.37 73.8452 207.559 74.3849C207.753 74.9247 208.045 75.3556 208.433 75.6776C208.826 75.9948 209.318 76.1534 209.91 76.1534ZM225.928 69.9744L223.584 70.2301C223.518 69.9934 223.402 69.7708 223.236 69.5625C223.075 69.3542 222.857 69.1861 222.582 69.0582C222.308 68.9304 221.972 68.8665 221.574 68.8665C221.039 68.8665 220.589 68.9825 220.224 69.2145C219.865 69.4465 219.687 69.7472 219.692 70.1165C219.687 70.4337 219.803 70.6918 220.04 70.8906C220.281 71.0895 220.679 71.2528 221.233 71.3807L223.094 71.7784C224.126 72.0009 224.893 72.3537 225.395 72.8366C225.902 73.3196 226.157 73.9517 226.162 74.733C226.157 75.4195 225.956 76.0256 225.558 76.5511C225.165 77.072 224.618 77.4792 223.918 77.7727C223.217 78.0663 222.412 78.2131 221.503 78.2131C220.168 78.2131 219.093 77.9337 218.278 77.375C217.464 76.8116 216.979 76.0279 216.822 75.0241L219.33 74.7827C219.443 75.2751 219.685 75.6468 220.054 75.8977C220.423 76.1487 220.904 76.2741 221.496 76.2741C222.107 76.2741 222.597 76.1487 222.966 75.8977C223.34 75.6468 223.527 75.3366 223.527 74.9673C223.527 74.6548 223.406 74.3968 223.165 74.1932C222.928 73.9896 222.559 73.8333 222.057 73.7244L220.196 73.3338C219.15 73.116 218.375 72.7491 217.874 72.233C217.372 71.7121 217.123 71.054 217.128 70.2585C217.123 69.5862 217.305 69.0038 217.675 68.5114C218.049 68.0142 218.567 67.6307 219.23 67.3608C219.898 67.0862 220.667 66.9489 221.538 66.9489C222.817 66.9489 223.823 67.2211 224.557 67.7656C225.295 68.3101 225.752 69.0464 225.928 69.9744ZM229.88 82.0909C229.53 82.0909 229.205 82.0625 228.907 82.0057C228.613 81.9536 228.379 81.892 228.204 81.821L228.8 79.8182C229.174 79.9271 229.508 79.9792 229.802 79.9744C230.095 79.9697 230.353 79.8774 230.576 79.6974C230.803 79.5223 230.995 79.2287 231.151 78.8168L231.371 78.2273L227.415 67.0909H230.143L232.657 75.3295H232.771L235.292 67.0909H238.026L233.658 79.321C233.455 79.8987 233.185 80.3935 232.849 80.8054C232.513 81.2221 232.101 81.5393 231.613 81.7571C231.13 81.9796 230.552 82.0909 229.88 82.0909ZM248.428 69.9744L246.084 70.2301C246.018 69.9934 245.902 69.7708 245.736 69.5625C245.575 69.3542 245.357 69.1861 245.082 69.0582C244.808 68.9304 244.472 68.8665 244.074 68.8665C243.539 68.8665 243.089 68.9825 242.724 69.2145C242.365 69.4465 242.187 69.7472 242.192 70.1165C242.187 70.4337 242.303 70.6918 242.54 70.8906C242.781 71.0895 243.179 71.2528 243.733 71.3807L245.594 71.7784C246.626 72.0009 247.393 72.3537 247.895 72.8366C248.402 73.3196 248.657 73.9517 248.662 74.733C248.657 75.4195 248.456 76.0256 248.058 76.5511C247.665 77.072 247.118 77.4792 246.418 77.7727C245.717 78.0663 244.912 78.2131 244.003 78.2131C242.668 78.2131 241.593 77.9337 240.778 77.375C239.964 76.8116 239.479 76.0279 239.322 75.0241L241.83 74.7827C241.943 75.2751 242.185 75.6468 242.554 75.8977C242.923 76.1487 243.404 76.2741 243.996 76.2741C244.607 76.2741 245.097 76.1487 245.466 75.8977C245.84 75.6468 246.027 75.3366 246.027 74.9673C246.027 74.6548 245.906 74.3968 245.665 74.1932C245.428 73.9896 245.059 73.8333 244.557 73.7244L242.696 73.3338C241.65 73.116 240.875 72.7491 240.374 72.233C239.872 71.7121 239.623 71.054 239.628 70.2585C239.623 69.5862 239.805 69.0038 240.175 68.5114C240.549 68.0142 241.067 67.6307 241.73 67.3608C242.398 67.0862 243.167 66.9489 244.038 66.9489C245.317 66.9489 246.323 67.2211 247.057 67.7656C247.795 68.3101 248.252 69.0464 248.428 69.9744ZM256.229 67.0909V69.0795H249.958V67.0909H256.229ZM251.506 64.4773H254.077V74.7188C254.077 75.0644 254.129 75.3295 254.234 75.5142C254.343 75.6941 254.485 75.8172 254.66 75.8835C254.835 75.9498 255.029 75.983 255.242 75.983C255.403 75.983 255.55 75.9711 255.683 75.9474C255.82 75.9238 255.924 75.9025 255.995 75.8835L256.428 77.8935C256.291 77.9408 256.094 77.9929 255.839 78.0497C255.588 78.1065 255.28 78.1397 254.915 78.1491C254.272 78.1681 253.692 78.071 253.175 77.858C252.659 77.6402 252.25 77.304 251.947 76.8494C251.648 76.3949 251.502 75.8267 251.506 75.1449V64.4773ZM263.092 78.2131C261.998 78.2131 261.054 77.9858 260.258 77.5312C259.467 77.072 258.859 76.4233 258.433 75.5852C258.007 74.7424 257.794 73.7505 257.794 72.6094C257.794 71.4872 258.007 70.5024 258.433 69.6548C258.864 68.8026 259.465 68.1397 260.237 67.6662C261.009 67.188 261.915 66.9489 262.957 66.9489C263.629 66.9489 264.264 67.0578 264.86 67.2756C265.462 67.4886 265.992 67.8201 266.451 68.2699C266.915 68.7197 267.28 69.2926 267.545 69.9886C267.81 70.6799 267.943 71.5038 267.943 72.4602V73.2486H259.001V71.5156H265.478C265.474 71.0232 265.367 70.5852 265.159 70.2017C264.95 69.8134 264.659 69.508 264.285 69.2855C263.916 69.063 263.485 68.9517 262.993 68.9517C262.467 68.9517 262.005 69.0795 261.608 69.3352C261.21 69.5862 260.9 69.9176 260.677 70.3295C260.459 70.7367 260.348 71.1842 260.343 71.6719V73.1847C260.343 73.8191 260.459 74.3636 260.691 74.8182C260.923 75.268 261.248 75.6136 261.664 75.8551C262.081 76.0919 262.569 76.2102 263.127 76.2102C263.502 76.2102 263.84 76.1581 264.143 76.054C264.446 75.9451 264.709 75.7865 264.931 75.5781C265.154 75.3698 265.322 75.1117 265.436 74.804L267.836 75.0739C267.685 75.7083 267.396 76.2623 266.97 76.7358C266.548 77.2045 266.009 77.5691 265.35 77.8295C264.692 78.0852 263.94 78.2131 263.092 78.2131ZM270.118 78V67.0909H272.575V68.9446H272.703C272.93 68.3196 273.307 67.8319 273.832 67.4815C274.358 67.1264 274.985 66.9489 275.714 66.9489C276.453 66.9489 277.076 67.1288 277.582 67.4886C278.094 67.8437 278.454 68.3291 278.662 68.9446H278.776C279.017 68.3385 279.424 67.8556 279.997 67.4957C280.575 67.1312 281.259 66.9489 282.05 66.9489C283.054 66.9489 283.873 67.2661 284.507 67.9006C285.142 68.535 285.459 69.4607 285.459 70.6776V78H282.881V71.0753C282.881 70.3982 282.701 69.9034 282.341 69.5909C281.981 69.2737 281.541 69.1151 281.02 69.1151C280.4 69.1151 279.914 69.3092 279.564 69.6974C279.218 70.081 279.045 70.5805 279.045 71.196V78H276.524V70.9688C276.524 70.4053 276.354 69.9555 276.013 69.6193C275.677 69.2831 275.236 69.1151 274.692 69.1151C274.322 69.1151 273.986 69.2098 273.683 69.3991C273.38 69.5838 273.139 69.8466 272.959 70.1875C272.779 70.5237 272.689 70.9167 272.689 71.3665V78H270.118Z" fill="white"/>
<path d="M99.1484 98.9567C99.0916 98.4524 98.8572 98.0618 98.4453 97.7848C98.0334 97.5043 97.5149 97.364 96.8899 97.364C96.4425 97.364 96.0554 97.435 95.7287 97.5771C95.402 97.7156 95.1481 97.9073 94.967 98.1523C94.7894 98.3938 94.7006 98.669 94.7006 98.978C94.7006 99.2372 94.761 99.4609 94.8817 99.6491C95.006 99.8374 95.1676 99.9954 95.3665 100.123C95.5689 100.248 95.7855 100.352 96.0163 100.438C96.2472 100.519 96.4691 100.587 96.6822 100.64L97.7475 100.917C98.0955 101.002 98.4524 101.118 98.8182 101.263C99.1839 101.409 99.5231 101.6 99.8356 101.838C100.148 102.076 100.4 102.371 100.592 102.723C100.787 103.074 100.885 103.495 100.885 103.985C100.885 104.603 100.725 105.152 100.406 105.631C100.089 106.11 99.6296 106.489 99.0259 106.766C98.4258 107.043 97.6996 107.181 96.8473 107.181C96.0305 107.181 95.3239 107.051 94.7273 106.792C94.1307 106.533 93.6637 106.165 93.3263 105.69C92.989 105.21 92.8026 104.642 92.767 103.985H94.4183C94.4503 104.379 94.5781 104.708 94.8018 104.971C95.0291 105.23 95.3185 105.423 95.6701 105.551C96.0252 105.675 96.4141 105.738 96.8366 105.738C97.3018 105.738 97.7156 105.665 98.0778 105.519C98.4435 105.37 98.7312 105.164 98.9407 104.901C99.1502 104.635 99.255 104.324 99.255 103.969C99.255 103.646 99.1626 103.381 98.978 103.175C98.7969 102.969 98.5501 102.799 98.2376 102.664C97.9286 102.529 97.5788 102.41 97.1882 102.307L95.8991 101.956C95.0256 101.718 94.3331 101.368 93.8217 100.906C93.3139 100.445 93.06 99.8338 93.06 99.0739C93.06 98.4453 93.2305 97.8967 93.5714 97.4279C93.9123 96.9592 94.3739 96.5952 94.9563 96.3359C95.5387 96.0732 96.1957 95.9418 96.9272 95.9418C97.6658 95.9418 98.3175 96.0714 98.8821 96.3306C99.4503 96.5898 99.8977 96.9467 100.224 97.4013C100.551 97.8523 100.722 98.3707 100.736 98.9567H99.1484ZM102.724 107V98.8182H104.317V107H102.724ZM103.528 97.5558C103.251 97.5558 103.013 97.4634 102.815 97.2788C102.619 97.0906 102.522 96.8668 102.522 96.6076C102.522 96.3448 102.619 96.1211 102.815 95.9364C103.013 95.7482 103.251 95.6541 103.528 95.6541C103.805 95.6541 104.041 95.7482 104.237 95.9364C104.436 96.1211 104.535 96.3448 104.535 96.6076C104.535 96.8668 104.436 97.0906 104.237 97.2788C104.041 97.4634 103.805 97.5558 103.528 97.5558ZM106.459 107V98.8182H107.988V100.15H108.089C108.26 99.6989 108.539 99.3473 108.926 99.0952C109.313 98.8395 109.776 98.7116 110.316 98.7116C110.863 98.7116 111.321 98.8395 111.69 99.0952C112.063 99.3509 112.338 99.7024 112.516 100.15H112.601C112.796 99.7131 113.107 99.3651 113.533 99.1058C113.959 98.843 114.467 98.7116 115.057 98.7116C115.799 98.7116 116.404 98.9442 116.873 99.4094C117.345 99.8746 117.581 100.576 117.581 101.513V107H115.989V101.663C115.989 101.109 115.838 100.707 115.536 100.459C115.234 100.21 114.874 100.086 114.455 100.086C113.936 100.086 113.533 100.246 113.246 100.565C112.958 100.881 112.814 101.288 112.814 101.785V107H111.227V101.561C111.227 101.118 111.088 100.761 110.811 100.491C110.534 100.221 110.174 100.086 109.73 100.086C109.428 100.086 109.149 100.166 108.894 100.326C108.642 100.482 108.437 100.7 108.281 100.981C108.128 101.261 108.052 101.586 108.052 101.956V107H106.459ZM124.899 103.607V98.8182H126.497V107H124.931V105.583H124.846C124.658 106.02 124.356 106.384 123.94 106.675C123.528 106.963 123.015 107.107 122.401 107.107C121.875 107.107 121.41 106.991 121.005 106.76C120.604 106.526 120.288 106.18 120.057 105.722C119.83 105.263 119.716 104.697 119.716 104.022V98.8182H121.309V103.831C121.309 104.388 121.463 104.832 121.772 105.162C122.081 105.493 122.483 105.658 122.976 105.658C123.274 105.658 123.571 105.583 123.866 105.434C124.164 105.285 124.411 105.059 124.606 104.757C124.805 104.456 124.903 104.072 124.899 103.607ZM130.23 96.0909V107H128.637V96.0909H130.23ZM134.753 107.181C134.235 107.181 133.766 107.085 133.347 106.893C132.928 106.698 132.596 106.416 132.351 106.047C132.11 105.677 131.989 105.224 131.989 104.688C131.989 104.227 132.078 103.847 132.255 103.548C132.433 103.25 132.672 103.014 132.974 102.84C133.276 102.666 133.614 102.534 133.986 102.446C134.359 102.357 134.739 102.289 135.126 102.243C135.616 102.186 136.014 102.14 136.32 102.105C136.625 102.066 136.847 102.004 136.985 101.918C137.124 101.833 137.193 101.695 137.193 101.503V101.466C137.193 101 137.062 100.64 136.799 100.384C136.54 100.129 136.153 100.001 135.638 100.001C135.101 100.001 134.679 100.12 134.37 100.358C134.065 100.592 133.853 100.853 133.736 101.141L132.239 100.8C132.417 100.303 132.676 99.9013 133.017 99.5959C133.361 99.2869 133.757 99.0632 134.205 98.9247C134.652 98.7827 135.123 98.7116 135.616 98.7116C135.943 98.7116 136.289 98.7507 136.655 98.8288C137.024 98.9034 137.369 99.0419 137.688 99.2443C138.012 99.4467 138.276 99.7362 138.482 100.113C138.688 100.485 138.791 100.97 138.791 101.567V107H137.236V105.881H137.172C137.069 106.087 136.914 106.29 136.708 106.489C136.502 106.687 136.238 106.853 135.915 106.984C135.592 107.115 135.204 107.181 134.753 107.181ZM135.1 105.903C135.54 105.903 135.916 105.816 136.229 105.642C136.545 105.468 136.785 105.24 136.948 104.96C137.115 104.676 137.198 104.372 137.198 104.049V102.994C137.142 103.051 137.032 103.104 136.868 103.154C136.708 103.2 136.525 103.241 136.32 103.277C136.114 103.309 135.913 103.339 135.718 103.367C135.522 103.392 135.359 103.413 135.228 103.431C134.919 103.47 134.636 103.536 134.381 103.628C134.128 103.721 133.926 103.854 133.773 104.028C133.624 104.198 133.55 104.425 133.55 104.71C133.55 105.104 133.695 105.402 133.986 105.604C134.278 105.803 134.649 105.903 135.1 105.903ZM144.732 98.8182V100.097H140.263V98.8182H144.732ZM141.461 96.858H143.054V104.598C143.054 104.907 143.1 105.139 143.192 105.295C143.285 105.448 143.404 105.553 143.549 105.61C143.698 105.663 143.86 105.69 144.034 105.69C144.162 105.69 144.274 105.681 144.369 105.663C144.465 105.645 144.54 105.631 144.593 105.62L144.881 106.936C144.789 106.972 144.657 107.007 144.487 107.043C144.316 107.082 144.103 107.103 143.847 107.107C143.428 107.114 143.038 107.039 142.676 106.883C142.313 106.727 142.02 106.485 141.797 106.158C141.573 105.832 141.461 105.422 141.461 104.928V96.858ZM146.494 107V98.8182H148.086V107H146.494ZM147.298 97.5558C147.021 97.5558 146.783 97.4634 146.584 97.2788C146.389 97.0906 146.291 96.8668 146.291 96.6076C146.291 96.3448 146.389 96.1211 146.584 95.9364C146.783 95.7482 147.021 95.6541 147.298 95.6541C147.575 95.6541 147.811 95.7482 148.006 95.9364C148.205 96.1211 148.305 96.3448 148.305 96.6076C148.305 96.8668 148.205 97.0906 148.006 97.2788C147.811 97.4634 147.575 97.5558 147.298 97.5558ZM153.675 107.165C152.908 107.165 152.239 106.989 151.667 106.638C151.095 106.286 150.651 105.794 150.335 105.162C150.019 104.53 149.861 103.792 149.861 102.946C149.861 102.098 150.019 101.355 150.335 100.72C150.651 100.084 151.095 99.5906 151.667 99.239C152.239 98.8874 152.908 98.7116 153.675 98.7116C154.442 98.7116 155.112 98.8874 155.683 99.239C156.255 99.5906 156.699 100.084 157.015 100.72C157.331 101.355 157.489 102.098 157.489 102.946C157.489 103.792 157.331 104.53 157.015 105.162C156.699 105.794 156.255 106.286 155.683 106.638C155.112 106.989 154.442 107.165 153.675 107.165ZM153.681 105.828C154.178 105.828 154.59 105.697 154.916 105.434C155.243 105.171 155.485 104.821 155.641 104.385C155.801 103.948 155.881 103.467 155.881 102.941C155.881 102.419 155.801 101.94 155.641 101.503C155.485 101.062 155.243 100.709 154.916 100.443C154.59 100.176 154.178 100.043 153.681 100.043C153.18 100.043 152.764 100.176 152.434 100.443C152.107 100.709 151.864 101.062 151.704 101.503C151.548 101.94 151.47 102.419 151.47 102.941C151.47 103.467 151.548 103.948 151.704 104.385C151.864 104.821 152.107 105.171 152.434 105.434C152.764 105.697 153.18 105.828 153.681 105.828ZM160.86 102.142V107H159.267V98.8182H160.796V100.15H160.897C161.085 99.7166 161.38 99.3686 161.781 99.1058C162.186 98.843 162.696 98.7116 163.31 98.7116C163.867 98.7116 164.356 98.8288 164.775 99.0632C165.194 99.294 165.519 99.6385 165.75 100.097C165.98 100.555 166.096 101.121 166.096 101.796V107H164.503V101.988C164.503 101.395 164.349 100.931 164.04 100.597C163.731 100.26 163.306 100.091 162.767 100.091C162.397 100.091 162.069 100.171 161.781 100.331C161.497 100.491 161.272 100.725 161.105 101.034C160.941 101.339 160.86 101.709 160.86 102.142ZM175.105 103.889C174.675 103.889 174.282 103.784 173.927 103.575C173.572 103.362 173.288 103.078 173.075 102.723C172.866 102.368 172.761 101.975 172.761 101.545C172.761 101.112 172.866 100.72 173.075 100.368C173.288 100.013 173.572 99.7308 173.927 99.5213C174.282 99.3082 174.675 99.2017 175.105 99.2017C175.538 99.2017 175.93 99.3082 176.282 99.5213C176.637 99.7308 176.919 100.013 177.129 100.368C177.342 100.72 177.448 101.112 177.448 101.545C177.448 101.975 177.342 102.368 177.129 102.723C176.919 103.078 176.637 103.362 176.282 103.575C175.93 103.784 175.538 103.889 175.105 103.889ZM185.16 107H183.413L187.339 96.0909H189.24L193.166 107H191.419L188.335 98.0724H188.25L185.16 107ZM185.453 102.728H191.121V104.113H185.453V102.728ZM199.797 103.607V98.8182H201.395V107H199.828V105.583H199.743C199.555 106.02 199.253 106.384 198.838 106.675C198.426 106.963 197.913 107.107 197.298 107.107C196.773 107.107 196.308 106.991 195.903 106.76C195.501 106.526 195.185 106.18 194.955 105.722C194.727 105.263 194.614 104.697 194.614 104.022V98.8182H196.206V103.831C196.206 104.388 196.361 104.832 196.67 105.162C196.979 105.493 197.38 105.658 197.874 105.658C198.172 105.658 198.468 105.583 198.763 105.434C199.061 105.285 199.308 105.059 199.504 104.757C199.702 104.456 199.8 104.072 199.797 103.607ZM207.354 98.8182V100.097H202.885V98.8182H207.354ZM204.083 96.858H205.676V104.598C205.676 104.907 205.722 105.139 205.814 105.295C205.907 105.448 206.026 105.553 206.171 105.61C206.32 105.663 206.482 105.69 206.656 105.69C206.784 105.69 206.896 105.681 206.992 105.663C207.087 105.645 207.162 105.631 207.215 105.62L207.503 106.936C207.411 106.972 207.279 107.007 207.109 107.043C206.938 107.082 206.725 107.103 206.47 107.107C206.051 107.114 205.66 107.039 205.298 106.883C204.935 106.727 204.642 106.485 204.419 106.158C204.195 105.832 204.083 105.422 204.083 104.928V96.858ZM212.474 107.165C211.707 107.165 211.038 106.989 210.466 106.638C209.894 106.286 209.45 105.794 209.134 105.162C208.818 104.53 208.66 103.792 208.66 102.946C208.66 102.098 208.818 101.355 209.134 100.72C209.45 100.084 209.894 99.5906 210.466 99.239C211.038 98.8874 211.707 98.7116 212.474 98.7116C213.241 98.7116 213.911 98.8874 214.482 99.239C215.054 99.5906 215.498 100.084 215.814 100.72C216.13 101.355 216.288 102.098 216.288 102.946C216.288 103.792 216.13 104.53 215.814 105.162C215.498 105.794 215.054 106.286 214.482 106.638C213.911 106.989 213.241 107.165 212.474 107.165ZM212.479 105.828C212.977 105.828 213.388 105.697 213.715 105.434C214.042 105.171 214.283 104.821 214.44 104.385C214.599 103.948 214.679 103.467 214.679 102.941C214.679 102.419 214.599 101.94 214.44 101.503C214.283 101.062 214.042 100.709 213.715 100.443C213.388 100.176 212.977 100.043 212.479 100.043C211.979 100.043 211.563 100.176 211.233 100.443C210.906 100.709 210.663 101.062 210.503 101.503C210.347 101.94 210.269 102.419 210.269 102.941C210.269 103.467 210.347 103.948 210.503 104.385C210.663 104.821 210.906 105.171 211.233 105.434C211.563 105.697 211.979 105.828 212.479 105.828ZM218.066 107V98.8182H219.595V100.15H219.696C219.866 99.6989 220.145 99.3473 220.532 99.0952C220.919 98.8395 221.383 98.7116 221.922 98.7116C222.469 98.7116 222.927 98.8395 223.297 99.0952C223.669 99.3509 223.945 99.7024 224.122 100.15H224.207C224.403 99.7131 224.714 99.3651 225.14 99.1058C225.566 98.843 226.074 98.7116 226.663 98.7116C227.405 98.7116 228.011 98.9442 228.479 99.4094C228.952 99.8746 229.188 100.576 229.188 101.513V107H227.595V101.663C227.595 101.109 227.444 100.707 227.142 100.459C226.841 100.21 226.48 100.086 226.061 100.086C225.543 100.086 225.14 100.246 224.852 100.565C224.564 100.881 224.421 101.288 224.421 101.785V107H222.833V101.561C222.833 101.118 222.695 100.761 222.418 100.491C222.141 100.221 221.78 100.086 221.336 100.086C221.035 100.086 220.756 100.166 220.5 100.326C220.248 100.482 220.044 100.7 219.888 100.981C219.735 101.261 219.658 101.586 219.658 101.956V107H218.066ZM233.704 107.181C233.185 107.181 232.716 107.085 232.297 106.893C231.878 106.698 231.546 106.416 231.301 106.047C231.06 105.677 230.939 105.224 230.939 104.688C230.939 104.227 231.028 103.847 231.205 103.548C231.383 103.25 231.623 103.014 231.925 102.84C232.226 102.666 232.564 102.534 232.937 102.446C233.309 102.357 233.689 102.289 234.077 102.243C234.567 102.186 234.964 102.14 235.27 102.105C235.575 102.066 235.797 102.004 235.936 101.918C236.074 101.833 236.143 101.695 236.143 101.503V101.466C236.143 101 236.012 100.64 235.749 100.384C235.49 100.129 235.103 100.001 234.588 100.001C234.052 100.001 233.629 100.12 233.32 100.358C233.015 100.592 232.803 100.853 232.686 101.141L231.189 100.8C231.367 100.303 231.626 99.9013 231.967 99.5959C232.312 99.2869 232.708 99.0632 233.155 98.9247C233.602 98.7827 234.073 98.7116 234.567 98.7116C234.893 98.7116 235.24 98.7507 235.605 98.8288C235.975 98.9034 236.319 99.0419 236.639 99.2443C236.962 99.4467 237.226 99.7362 237.432 100.113C237.638 100.485 237.741 100.97 237.741 101.567V107H236.186V105.881H236.122C236.019 106.087 235.865 106.29 235.659 106.489C235.453 106.687 235.188 106.853 234.865 106.984C234.542 107.115 234.155 107.181 233.704 107.181ZM234.05 105.903C234.49 105.903 234.867 105.816 235.179 105.642C235.495 105.468 235.735 105.24 235.898 104.96C236.065 104.676 236.149 104.372 236.149 104.049V102.994C236.092 103.051 235.982 103.104 235.818 103.154C235.659 103.2 235.476 103.241 235.27 103.277C235.064 103.309 234.863 103.339 234.668 103.367C234.472 103.392 234.309 103.413 234.178 103.431C233.869 103.47 233.586 103.536 233.331 103.628C233.079 103.721 232.876 103.854 232.724 104.028C232.574 104.198 232.5 104.425 232.5 104.71C232.5 105.104 232.645 105.402 232.937 105.604C233.228 105.803 233.599 105.903 234.05 105.903ZM243.682 98.8182V100.097H239.213V98.8182H243.682ZM240.411 96.858H242.004V104.598C242.004 104.907 242.05 105.139 242.142 105.295C242.235 105.448 242.354 105.553 242.499 105.61C242.649 105.663 242.81 105.69 242.984 105.69C243.112 105.69 243.224 105.681 243.32 105.663C243.416 105.645 243.49 105.631 243.543 105.62L243.831 106.936C243.739 106.972 243.607 107.007 243.437 107.043C243.266 107.082 243.053 107.103 242.798 107.107C242.379 107.114 241.988 107.039 241.626 106.883C241.264 106.727 240.971 106.485 240.747 106.158C240.523 105.832 240.411 105.422 240.411 104.928V96.858ZM245.444 107V98.8182H247.036V107H245.444ZM246.248 97.5558C245.971 97.5558 245.733 97.4634 245.534 97.2788C245.339 97.0906 245.241 96.8668 245.241 96.6076C245.241 96.3448 245.339 96.1211 245.534 95.9364C245.733 95.7482 245.971 95.6541 246.248 95.6541C246.525 95.6541 246.761 95.7482 246.956 95.9364C247.155 96.1211 247.255 96.3448 247.255 96.6076C247.255 96.8668 247.155 97.0906 246.956 97.2788C246.761 97.4634 246.525 97.5558 246.248 97.5558ZM252.625 107.165C251.858 107.165 251.189 106.989 250.617 106.638C250.046 106.286 249.602 105.794 249.286 105.162C248.97 104.53 248.812 103.792 248.812 102.946C248.812 102.098 248.97 101.355 249.286 100.72C249.602 100.084 250.046 99.5906 250.617 99.239C251.189 98.8874 251.858 98.7116 252.625 98.7116C253.392 98.7116 254.062 98.8874 254.634 99.239C255.205 99.5906 255.649 100.084 255.965 100.72C256.281 101.355 256.439 102.098 256.439 102.946C256.439 103.792 256.281 104.53 255.965 105.162C255.649 105.794 255.205 106.286 254.634 106.638C254.062 106.989 253.392 107.165 252.625 107.165ZM252.631 105.828C253.128 105.828 253.54 105.697 253.867 105.434C254.193 105.171 254.435 104.821 254.591 104.385C254.751 103.948 254.831 103.467 254.831 102.941C254.831 102.419 254.751 101.94 254.591 101.503C254.435 101.062 254.193 100.709 253.867 100.443C253.54 100.176 253.128 100.043 252.631 100.043C252.13 100.043 251.715 100.176 251.384 100.443C251.058 100.709 250.814 101.062 250.655 101.503C250.498 101.94 250.42 102.419 250.42 102.941C250.42 103.467 250.498 103.948 250.655 104.385C250.814 104.821 251.058 105.171 251.384 105.434C251.715 105.697 252.13 105.828 252.631 105.828ZM259.81 102.142V107H258.217V98.8182H259.746V100.15H259.847C260.035 99.7166 260.33 99.3686 260.731 99.1058C261.136 98.843 261.646 98.7116 262.26 98.7116C262.818 98.7116 263.306 98.8288 263.725 99.0632C264.144 99.294 264.469 99.6385 264.7 100.097C264.931 100.555 265.046 101.121 265.046 101.796V107H263.453V101.988C263.453 101.395 263.299 100.931 262.99 100.597C262.681 100.26 262.257 100.091 261.717 100.091C261.347 100.091 261.019 100.171 260.731 100.331C260.447 100.491 260.222 100.725 260.055 101.034C259.892 101.339 259.81 101.709 259.81 102.142ZM274.055 103.889C273.625 103.889 273.233 103.784 272.878 103.575C272.522 103.362 272.238 103.078 272.025 102.723C271.816 102.368 271.711 101.975 271.711 101.545C271.711 101.112 271.816 100.72 272.025 100.368C272.238 100.013 272.522 99.7308 272.878 99.5213C273.233 99.3082 273.625 99.2017 274.055 99.2017C274.488 99.2017 274.88 99.3082 275.232 99.5213C275.587 99.7308 275.869 100.013 276.079 100.368C276.292 100.72 276.399 101.112 276.399 101.545C276.399 101.975 276.292 102.368 276.079 102.723C275.869 103.078 275.587 103.362 275.232 103.575C274.88 103.784 274.488 103.889 274.055 103.889ZM284.835 96.0909V107H283.189V96.0909H284.835ZM288.697 102.142V107H287.104V98.8182H288.633V100.15H288.734C288.922 99.7166 289.217 99.3686 289.618 99.1058C290.023 98.843 290.532 98.7116 291.147 98.7116C291.704 98.7116 292.193 98.8288 292.612 99.0632C293.031 99.294 293.356 99.6385 293.586 100.097C293.817 100.555 293.933 101.121 293.933 101.796V107H292.34V101.988C292.34 101.395 292.186 100.931 291.877 100.597C291.568 100.26 291.143 100.091 290.604 100.091C290.234 100.091 289.906 100.171 289.618 100.331C289.334 100.491 289.108 100.725 288.942 101.034C288.778 101.339 288.697 101.709 288.697 102.142ZM297.661 102.142V107H296.069V98.8182H297.597V100.15H297.699C297.887 99.7166 298.182 99.3686 298.583 99.1058C298.988 98.843 299.497 98.7116 300.112 98.7116C300.669 98.7116 301.157 98.8288 301.577 99.0632C301.996 99.294 302.32 99.6385 302.551 100.097C302.782 100.555 302.898 101.121 302.898 101.796V107H301.305V101.988C301.305 101.395 301.15 100.931 300.841 100.597C300.532 100.26 300.108 100.091 299.568 100.091C299.199 100.091 298.871 100.171 298.583 100.331C298.299 100.491 298.073 100.725 297.906 101.034C297.743 101.339 297.661 101.709 297.661 102.142ZM308.48 107.165C307.713 107.165 307.044 106.989 306.472 106.638C305.9 106.286 305.456 105.794 305.14 105.162C304.824 104.53 304.666 103.792 304.666 102.946C304.666 102.098 304.824 101.355 305.14 100.72C305.456 100.084 305.9 99.5906 306.472 99.239C307.044 98.8874 307.713 98.7116 308.48 98.7116C309.247 98.7116 309.916 98.8874 310.488 99.239C311.06 99.5906 311.504 100.084 311.82 100.72C312.136 101.355 312.294 102.098 312.294 102.946C312.294 103.792 312.136 104.53 311.82 105.162C311.504 105.794 311.06 106.286 310.488 106.638C309.916 106.989 309.247 107.165 308.48 107.165ZM308.485 105.828C308.982 105.828 309.394 105.697 309.721 105.434C310.048 105.171 310.289 104.821 310.445 104.385C310.605 103.948 310.685 103.467 310.685 102.941C310.685 102.419 310.605 101.94 310.445 101.503C310.289 101.062 310.048 100.709 309.721 100.443C309.394 100.176 308.982 100.043 308.485 100.043C307.985 100.043 307.569 100.176 307.239 100.443C306.912 100.709 306.669 101.062 306.509 101.503C306.353 101.94 306.275 102.419 306.275 102.941C306.275 103.467 306.353 103.948 306.509 104.385C306.669 104.821 306.912 105.171 307.239 105.434C307.569 105.697 307.985 105.828 308.485 105.828ZM320.793 98.8182L317.826 107H316.121L313.149 98.8182H314.859L316.931 105.114H317.016L319.083 98.8182H320.793ZM324.436 107.181C323.918 107.181 323.449 107.085 323.03 106.893C322.611 106.698 322.279 106.416 322.034 106.047C321.792 105.677 321.672 105.224 321.672 104.688C321.672 104.227 321.76 103.847 321.938 103.548C322.115 103.25 322.355 103.014 322.657 102.84C322.959 102.666 323.296 102.534 323.669 102.446C324.042 102.357 324.422 102.289 324.809 102.243C325.299 102.186 325.697 102.14 326.002 102.105C326.308 102.066 326.529 102.004 326.668 101.918C326.806 101.833 326.876 101.695 326.876 101.503V101.466C326.876 101 326.744 100.64 326.482 100.384C326.222 100.129 325.835 100.001 325.32 100.001C324.784 100.001 324.362 100.12 324.053 100.358C323.747 100.592 323.536 100.853 323.419 101.141L321.922 100.8C322.099 100.303 322.359 99.9013 322.7 99.5959C323.044 99.2869 323.44 99.0632 323.887 98.9247C324.335 98.7827 324.805 98.7116 325.299 98.7116C325.626 98.7116 325.972 98.7507 326.338 98.8288C326.707 98.9034 327.051 99.0419 327.371 99.2443C327.694 99.4467 327.959 99.7362 328.165 100.113C328.371 100.485 328.474 100.97 328.474 101.567V107H326.918V105.881H326.854C326.751 106.087 326.597 106.29 326.391 106.489C326.185 106.687 325.92 106.853 325.597 106.984C325.274 107.115 324.887 107.181 324.436 107.181ZM324.782 105.903C325.223 105.903 325.599 105.816 325.912 105.642C326.228 105.468 326.467 105.24 326.631 104.96C326.798 104.676 326.881 104.372 326.881 104.049V102.994C326.824 103.051 326.714 103.104 326.551 103.154C326.391 103.2 326.208 103.241 326.002 103.277C325.796 103.309 325.596 103.339 325.4 103.367C325.205 103.392 325.042 103.413 324.91 103.431C324.601 103.47 324.319 103.536 324.063 103.628C323.811 103.721 323.609 103.854 323.456 104.028C323.307 104.198 323.232 104.425 323.232 104.71C323.232 105.104 323.378 105.402 323.669 105.604C323.96 105.803 324.331 105.903 324.782 105.903ZM334.414 98.8182V100.097H329.945V98.8182H334.414ZM331.144 96.858H332.736V104.598C332.736 104.907 332.783 105.139 332.875 105.295C332.967 105.448 333.086 105.553 333.232 105.61C333.381 105.663 333.543 105.69 333.717 105.69C333.844 105.69 333.956 105.681 334.052 105.663C334.148 105.645 334.223 105.631 334.276 105.62L334.563 106.936C334.471 106.972 334.34 107.007 334.169 107.043C333.999 107.082 333.786 107.103 333.53 107.107C333.111 107.114 332.72 107.039 332.358 106.883C331.996 106.727 331.703 106.485 331.479 106.158C331.256 105.832 331.144 105.422 331.144 104.928V96.858ZM336.176 107V98.8182H337.769V107H336.176ZM336.98 97.5558C336.703 97.5558 336.466 97.4634 336.267 97.2788C336.071 97.0906 335.974 96.8668 335.974 96.6076C335.974 96.3448 336.071 96.1211 336.267 95.9364C336.466 95.7482 336.703 95.6541 336.98 95.6541C337.257 95.6541 337.494 95.7482 337.689 95.9364C337.888 96.1211 337.987 96.3448 337.987 96.6076C337.987 96.8668 337.888 97.0906 337.689 97.2788C337.494 97.4634 337.257 97.5558 336.98 97.5558ZM343.358 107.165C342.591 107.165 341.921 106.989 341.35 106.638C340.778 106.286 340.334 105.794 340.018 105.162C339.702 104.53 339.544 103.792 339.544 102.946C339.544 102.098 339.702 101.355 340.018 100.72C340.334 100.084 340.778 99.5906 341.35 99.239C341.921 98.8874 342.591 98.7116 343.358 98.7116C344.125 98.7116 344.794 98.8874 345.366 99.239C345.938 99.5906 346.382 100.084 346.698 100.72C347.014 101.355 347.172 102.098 347.172 102.946C347.172 103.792 347.014 104.53 346.698 105.162C346.382 105.794 345.938 106.286 345.366 106.638C344.794 106.989 344.125 107.165 343.358 107.165ZM343.363 105.828C343.86 105.828 344.272 105.697 344.599 105.434C344.926 105.171 345.167 104.821 345.323 104.385C345.483 103.948 345.563 103.467 345.563 102.941C345.563 102.419 345.483 101.94 345.323 101.503C345.167 101.062 344.926 100.709 344.599 100.443C344.272 100.176 343.86 100.043 343.363 100.043C342.862 100.043 342.447 100.176 342.117 100.443C341.79 100.709 341.547 101.062 341.387 101.503C341.231 101.94 341.153 102.419 341.153 102.941C341.153 103.467 341.231 103.948 341.387 104.385C341.547 104.821 341.79 105.171 342.117 105.434C342.447 105.697 342.862 105.828 343.363 105.828ZM350.542 102.142V107H348.95V98.8182H350.478V100.15H350.58C350.768 99.7166 351.063 99.3686 351.464 99.1058C351.869 98.843 352.378 98.7116 352.993 98.7116C353.55 98.7116 354.038 98.8288 354.457 99.0632C354.876 99.294 355.201 99.6385 355.432 100.097C355.663 100.555 355.778 101.121 355.778 101.796V107H354.186V101.988C354.186 101.395 354.031 100.931 353.722 100.597C353.413 100.26 352.989 100.091 352.449 100.091C352.08 100.091 351.751 100.171 351.464 100.331C351.18 100.491 350.954 100.725 350.787 101.034C350.624 101.339 350.542 101.709 350.542 102.142Z" fill="#ECECEC"/>
<path d="M207.41 19.56C207.41 19.3667 207.477 19.2033 207.61 19.07C207.75 18.93 207.917 18.86 208.11 18.86C208.303 18.86 208.467 18.93 208.6 19.07C208.74 19.2033 208.81 19.3667 208.81 19.56C208.81 19.7533 208.74 19.92 208.6 20.06C208.467 20.1933 208.303 20.26 208.11 20.26C207.917 20.26 207.75 20.1933 207.61 20.06C207.477 19.92 207.41 19.7533 207.41 19.56ZM205.99 25.28H207.73V21.76H206.17V21.04H208.51V25.28H210.13V26H205.99V25.28ZM216.763 26H215.983V22.44C215.983 22.2067 215.93 22.0167 215.823 21.87C215.716 21.7167 215.546 21.64 215.313 21.64C215.093 21.64 214.913 21.7233 214.773 21.89C214.64 22.05 214.573 22.3 214.573 22.64V26H213.793V22.4C213.793 22.18 213.733 22 213.613 21.86C213.493 21.7133 213.333 21.64 213.133 21.64C212.893 21.64 212.706 21.7267 212.573 21.9C212.446 22.0733 212.383 22.3 212.383 22.58V26H211.603V21.04H212.383V21.58H212.503C212.59 21.3467 212.716 21.1767 212.883 21.07C213.05 20.9567 213.246 20.9 213.473 20.9C213.713 20.9 213.91 20.9633 214.063 21.09C214.223 21.2167 214.333 21.38 214.393 21.58H214.513C214.74 21.1267 215.1 20.9 215.593 20.9C215.966 20.9 216.253 21.02 216.453 21.26C216.66 21.4933 216.763 21.8 216.763 22.18V26ZM218.716 28H217.936V21.04H218.716V21.82H218.836C219.009 21.52 219.249 21.2933 219.556 21.14C219.863 20.98 220.196 20.9 220.556 20.9C220.863 20.9 221.153 20.9567 221.426 21.07C221.699 21.1833 221.939 21.3467 222.146 21.56C222.359 21.7733 222.526 22.0367 222.646 22.35C222.773 22.6633 222.836 23.02 222.836 23.42V23.62C222.836 24.0267 222.776 24.3867 222.656 24.7C222.536 25.0133 222.369 25.2767 222.156 25.49C221.949 25.7033 221.706 25.8667 221.426 25.98C221.146 26.0867 220.849 26.14 220.536 26.14C220.376 26.14 220.213 26.12 220.046 26.08C219.879 26.0467 219.719 25.9933 219.566 25.92C219.419 25.84 219.283 25.7467 219.156 25.64C219.029 25.5267 218.923 25.3933 218.836 25.24H218.716V28ZM220.376 25.4C220.616 25.4 220.836 25.36 221.036 25.28C221.236 25.1933 221.409 25.0733 221.556 24.92C221.709 24.7667 221.826 24.58 221.906 24.36C221.993 24.14 222.036 23.8933 222.036 23.62V23.42C222.036 23.1533 221.993 22.9133 221.906 22.7C221.826 22.48 221.709 22.2933 221.556 22.14C221.409 21.98 221.233 21.8567 221.026 21.77C220.826 21.6833 220.609 21.64 220.376 21.64C220.143 21.64 219.926 21.6867 219.726 21.78C219.526 21.8667 219.349 21.99 219.196 22.15C219.049 22.31 218.933 22.5033 218.846 22.73C218.759 22.95 218.716 23.1933 218.716 23.46V23.58C218.716 23.8533 218.759 24.1033 218.846 24.33C218.933 24.55 219.049 24.74 219.196 24.9C219.349 25.06 219.526 25.1833 219.726 25.27C219.926 25.3567 220.143 25.4 220.376 25.4ZM228.919 23.58C228.919 23.9933 228.849 24.36 228.709 24.68C228.576 24.9933 228.396 25.26 228.169 25.48C227.942 25.6933 227.676 25.8567 227.369 25.97C227.069 26.0833 226.756 26.14 226.429 26.14C226.096 26.14 225.779 26.0833 225.479 25.97C225.179 25.8567 224.916 25.6933 224.689 25.48C224.462 25.26 224.279 24.9933 224.139 24.68C224.006 24.36 223.939 23.9933 223.939 23.58V23.46C223.939 23.0533 224.006 22.6933 224.139 22.38C224.279 22.06 224.462 21.79 224.689 21.57C224.922 21.35 225.189 21.1833 225.489 21.07C225.789 20.9567 226.102 20.9 226.429 20.9C226.756 20.9 227.069 20.9567 227.369 21.07C227.669 21.1833 227.932 21.35 228.159 21.57C228.392 21.79 228.576 22.06 228.709 22.38C228.849 22.6933 228.919 23.0533 228.919 23.46V23.58ZM226.429 25.4C226.669 25.4 226.889 25.36 227.089 25.28C227.296 25.1933 227.476 25.07 227.629 24.91C227.782 24.75 227.902 24.56 227.989 24.34C228.076 24.1133 228.119 23.86 228.119 23.58V23.46C228.119 23.1933 228.076 22.95 227.989 22.73C227.902 22.5033 227.782 22.31 227.629 22.15C227.476 21.99 227.296 21.8667 227.089 21.78C226.882 21.6867 226.662 21.64 226.429 21.64C226.196 21.64 225.976 21.6867 225.769 21.78C225.562 21.8667 225.382 21.99 225.229 22.15C225.076 22.31 224.956 22.5033 224.869 22.73C224.782 22.95 224.739 23.1933 224.739 23.46V23.58C224.739 23.86 224.782 24.1133 224.869 24.34C224.956 24.56 225.076 24.75 225.229 24.91C225.382 25.07 225.559 25.1933 225.759 25.28C225.966 25.36 226.189 25.4 226.429 25.4ZM230.082 21.04H231.882V21.7H232.002C232.129 21.4267 232.309 21.2267 232.542 21.1C232.776 20.9667 233.042 20.9 233.342 20.9C233.842 20.9 234.246 21.0633 234.552 21.39C234.859 21.7167 235.022 22.1933 235.042 22.82L234.222 22.94C234.222 22.48 234.112 22.15 233.892 21.95C233.672 21.7433 233.402 21.64 233.082 21.64C232.876 21.64 232.696 21.68 232.542 21.76C232.396 21.84 232.272 21.95 232.172 22.09C232.072 22.23 231.999 22.3933 231.952 22.58C231.906 22.7667 231.882 22.9667 231.882 23.18V25.28H233.142V26H229.962V25.28H231.102V21.76H230.082V21.04ZM236.315 21.04H237.875V19H238.655V21.04H240.575V21.76H238.655V24.98C238.655 25.18 238.745 25.28 238.925 25.28H240.335V26H238.645C238.419 26 238.232 25.9267 238.085 25.78C237.945 25.6333 237.875 25.4467 237.875 25.22V21.76H236.315V21.04ZM249.331 28H248.551V21.04H249.331V21.82H249.451C249.625 21.52 249.865 21.2933 250.171 21.14C250.478 20.98 250.811 20.9 251.171 20.9C251.478 20.9 251.768 20.9567 252.041 21.07C252.315 21.1833 252.555 21.3467 252.761 21.56C252.975 21.7733 253.141 22.0367 253.261 22.35C253.388 22.6633 253.451 23.02 253.451 23.42V23.62C253.451 24.0267 253.391 24.3867 253.271 24.7C253.151 25.0133 252.985 25.2767 252.771 25.49C252.565 25.7033 252.321 25.8667 252.041 25.98C251.761 26.0867 251.465 26.14 251.151 26.14C250.991 26.14 250.828 26.12 250.661 26.08C250.495 26.0467 250.335 25.9933 250.181 25.92C250.035 25.84 249.898 25.7467 249.771 25.64C249.645 25.5267 249.538 25.3933 249.451 25.24H249.331V28ZM250.991 25.4C251.231 25.4 251.451 25.36 251.651 25.28C251.851 25.1933 252.025 25.0733 252.171 24.92C252.325 24.7667 252.441 24.58 252.521 24.36C252.608 24.14 252.651 23.8933 252.651 23.62V23.42C252.651 23.1533 252.608 22.9133 252.521 22.7C252.441 22.48 252.325 22.2933 252.171 22.14C252.025 21.98 251.848 21.8567 251.641 21.77C251.441 21.6833 251.225 21.64 250.991 21.64C250.758 21.64 250.541 21.6867 250.341 21.78C250.141 21.8667 249.965 21.99 249.811 22.15C249.665 22.31 249.548 22.5033 249.461 22.73C249.375 22.95 249.331 23.1933 249.331 23.46V23.58C249.331 23.8533 249.375 24.1033 249.461 24.33C249.548 24.55 249.665 24.74 249.811 24.9C249.965 25.06 250.141 25.1833 250.341 25.27C250.541 25.3567 250.758 25.4 250.991 25.4ZM258.454 25.1H258.334C258.174 25.42 257.964 25.6733 257.704 25.86C257.444 26.0467 257.114 26.14 256.714 26.14C256.441 26.14 256.188 26.0933 255.954 26C255.728 25.9133 255.531 25.78 255.364 25.6C255.204 25.42 255.078 25.1967 254.984 24.93C254.898 24.6633 254.854 24.3533 254.854 24V21.04H255.634V23.9C255.634 24.42 255.741 24.8 255.954 25.04C256.168 25.28 256.494 25.4 256.934 25.4C257.408 25.4 257.778 25.24 258.044 24.92C258.318 24.5933 258.454 24.16 258.454 23.62V21.04H259.234V27.22C259.234 27.4467 259.161 27.6333 259.014 27.78C258.874 27.9267 258.691 28 258.464 28H255.634V27.28H258.184C258.364 27.28 258.454 27.18 258.454 26.98V25.1ZM264.577 25.16H264.457C264.297 25.4933 264.074 25.74 263.787 25.9C263.507 26.06 263.211 26.14 262.897 26.14C262.571 26.14 262.267 26.0867 261.987 25.98C261.707 25.8667 261.461 25.7033 261.247 25.49C261.041 25.27 260.877 25.0033 260.757 24.69C260.637 24.3767 260.577 24.0133 260.577 23.6V23.44C260.577 23.0333 260.637 22.6733 260.757 22.36C260.877 22.0467 261.041 21.7833 261.247 21.57C261.461 21.35 261.707 21.1833 261.987 21.07C262.267 20.9567 262.564 20.9 262.877 20.9C263.217 20.9 263.524 20.9767 263.797 21.13C264.077 21.2767 264.297 21.5067 264.457 21.82H264.577V21.04H265.357V24.98C265.357 25.18 265.447 25.28 265.627 25.28H265.877V26H265.347C265.121 26 264.934 25.9267 264.787 25.78C264.647 25.6333 264.577 25.4467 264.577 25.22V25.16ZM262.977 25.4C263.211 25.4 263.424 25.3567 263.617 25.27C263.817 25.1833 263.987 25.06 264.127 24.9C264.267 24.74 264.377 24.55 264.457 24.33C264.537 24.1033 264.577 23.8533 264.577 23.58V23.46C264.577 23.1933 264.537 22.95 264.457 22.73C264.377 22.5033 264.264 22.31 264.117 22.15C263.977 21.99 263.807 21.8667 263.607 21.78C263.414 21.6867 263.204 21.64 262.977 21.64C262.744 21.64 262.531 21.6833 262.337 21.77C262.144 21.8567 261.974 21.98 261.827 22.14C261.687 22.2933 261.577 22.4833 261.497 22.71C261.417 22.93 261.377 23.1733 261.377 23.44V23.6C261.377 24.1667 261.524 24.61 261.817 24.93C262.117 25.2433 262.504 25.4 262.977 25.4ZM267.88 26H267.1V21.04H267.88V21.88H268C268.307 21.2267 268.84 20.9 269.6 20.9C270.174 20.9 270.63 21.08 270.97 21.44C271.31 21.7933 271.48 22.3267 271.48 23.04V26H270.7V23.2C270.7 22.68 270.584 22.29 270.35 22.03C270.117 21.77 269.8 21.64 269.4 21.64C268.927 21.64 268.554 21.8033 268.28 22.13C268.014 22.45 267.88 22.88 267.88 23.42V26ZM274.254 22.32C274.254 22.56 274.354 22.7433 274.554 22.87C274.76 22.9967 275.134 23.08 275.674 23.12C276.254 23.1667 276.694 23.3067 276.994 23.54C277.3 23.7667 277.454 24.1 277.454 24.54V24.6C277.454 24.84 277.404 25.0567 277.304 25.25C277.21 25.4367 277.077 25.5967 276.904 25.73C276.737 25.8633 276.53 25.9633 276.284 26.03C276.044 26.1033 275.78 26.14 275.494 26.14C275.107 26.14 274.774 26.09 274.494 25.99C274.22 25.8833 273.99 25.7467 273.804 25.58C273.624 25.4067 273.487 25.2133 273.394 25C273.3 24.78 273.247 24.56 273.234 24.34L273.974 24.16C274.007 24.54 274.154 24.8467 274.414 25.08C274.674 25.3067 275.02 25.42 275.454 25.42C275.82 25.42 276.114 25.35 276.334 25.21C276.56 25.0633 276.674 24.86 276.674 24.6C276.674 24.32 276.564 24.12 276.344 24C276.124 23.88 275.767 23.8033 275.274 23.77C274.7 23.73 274.26 23.5967 273.954 23.37C273.647 23.1433 273.494 22.8133 273.494 22.38V22.32C273.494 22.0867 273.544 21.8833 273.644 21.71C273.744 21.53 273.877 21.38 274.044 21.26C274.217 21.14 274.41 21.05 274.624 20.99C274.837 20.93 275.06 20.9 275.294 20.9C275.62 20.9 275.907 20.9467 276.154 21.04C276.4 21.1267 276.607 21.2433 276.774 21.39C276.94 21.53 277.067 21.6933 277.154 21.88C277.247 22.0667 277.307 22.2533 277.334 22.44L276.594 22.62C276.56 22.3 276.43 22.05 276.204 21.87C275.984 21.69 275.694 21.6 275.334 21.6C275.194 21.6 275.057 21.6167 274.924 21.65C274.797 21.6767 274.684 21.72 274.584 21.78C274.484 21.84 274.404 21.9167 274.344 22.01C274.284 22.0967 274.254 22.2 274.254 22.32ZM282.947 25.1H282.827C282.667 25.42 282.457 25.6733 282.197 25.86C281.937 26.0467 281.607 26.14 281.207 26.14C280.933 26.14 280.68 26.0933 280.447 26C280.22 25.9133 280.023 25.78 279.857 25.6C279.697 25.42 279.57 25.1967 279.477 24.93C279.39 24.6633 279.347 24.3533 279.347 24V21.04H280.127V23.9C280.127 24.42 280.233 24.8 280.447 25.04C280.66 25.28 280.987 25.4 281.427 25.4C281.9 25.4 282.27 25.24 282.537 24.92C282.81 24.5933 282.947 24.16 282.947 23.62V21.04H283.727V27.22C283.727 27.4467 283.653 27.6333 283.507 27.78C283.367 27.9267 283.183 28 282.957 28H280.127V27.28H282.677C282.857 27.28 282.947 27.18 282.947 26.98V25.1ZM286.5 22.32C286.5 22.56 286.6 22.7433 286.8 22.87C287.006 22.9967 287.38 23.08 287.92 23.12C288.5 23.1667 288.94 23.3067 289.24 23.54C289.546 23.7667 289.7 24.1 289.7 24.54V24.6C289.7 24.84 289.65 25.0567 289.55 25.25C289.456 25.4367 289.323 25.5967 289.15 25.73C288.983 25.8633 288.776 25.9633 288.53 26.03C288.29 26.1033 288.026 26.14 287.74 26.14C287.353 26.14 287.02 26.09 286.74 25.99C286.466 25.8833 286.236 25.7467 286.05 25.58C285.87 25.4067 285.733 25.2133 285.64 25C285.546 24.78 285.493 24.56 285.48 24.34L286.22 24.16C286.253 24.54 286.4 24.8467 286.66 25.08C286.92 25.3067 287.266 25.42 287.7 25.42C288.066 25.42 288.36 25.35 288.58 25.21C288.806 25.0633 288.92 24.86 288.92 24.6C288.92 24.32 288.81 24.12 288.59 24C288.37 23.88 288.013 23.8033 287.52 23.77C286.946 23.73 286.506 23.5967 286.2 23.37C285.893 23.1433 285.74 22.8133 285.74 22.38V22.32C285.74 22.0867 285.79 21.8833 285.89 21.71C285.99 21.53 286.123 21.38 286.29 21.26C286.463 21.14 286.656 21.05 286.87 20.99C287.083 20.93 287.306 20.9 287.54 20.9C287.866 20.9 288.153 20.9467 288.4 21.04C288.646 21.1267 288.853 21.2433 289.02 21.39C289.186 21.53 289.313 21.6933 289.4 21.88C289.493 22.0667 289.553 22.2533 289.58 22.44L288.84 22.62C288.806 22.3 288.676 22.05 288.45 21.87C288.23 21.69 287.94 21.6 287.58 21.6C287.44 21.6 287.303 21.6167 287.17 21.65C287.043 21.6767 286.93 21.72 286.83 21.78C286.73 21.84 286.65 21.9167 286.59 22.01C286.53 22.0967 286.5 22.2 286.5 22.32ZM218.066 36.04H219.596V34.78C219.596 34.5533 219.666 34.3667 219.806 34.22C219.953 34.0733 220.139 34 220.366 34H222.326V34.72H220.646C220.466 34.72 220.376 34.82 220.376 35.02V36.04H222.446V36.76H220.376V41H219.596V36.76H218.066V36.04ZM223.959 36.04H225.759V36.7H225.879C226.006 36.4267 226.186 36.2267 226.419 36.1C226.652 35.9667 226.919 35.9 227.219 35.9C227.719 35.9 228.122 36.0633 228.429 36.39C228.736 36.7167 228.899 37.1933 228.919 37.82L228.099 37.94C228.099 37.48 227.989 37.15 227.769 36.95C227.549 36.7433 227.279 36.64 226.959 36.64C226.752 36.64 226.572 36.68 226.419 36.76C226.272 36.84 226.149 36.95 226.049 37.09C225.949 37.23 225.876 37.3933 225.829 37.58C225.782 37.7667 225.759 37.9667 225.759 38.18V40.28H227.019V41H223.839V40.28H224.979V36.76H223.959V36.04ZM235.042 38.58C235.042 38.9933 234.972 39.36 234.832 39.68C234.699 39.9933 234.519 40.26 234.292 40.48C234.066 40.6933 233.799 40.8567 233.492 40.97C233.192 41.0833 232.879 41.14 232.552 41.14C232.219 41.14 231.902 41.0833 231.602 40.97C231.302 40.8567 231.039 40.6933 230.812 40.48C230.586 40.26 230.402 39.9933 230.262 39.68C230.129 39.36 230.062 38.9933 230.062 38.58V38.46C230.062 38.0533 230.129 37.6933 230.262 37.38C230.402 37.06 230.586 36.79 230.812 36.57C231.046 36.35 231.312 36.1833 231.612 36.07C231.912 35.9567 232.226 35.9 232.552 35.9C232.879 35.9 233.192 35.9567 233.492 36.07C233.792 36.1833 234.056 36.35 234.282 36.57C234.516 36.79 234.699 37.06 234.832 37.38C234.972 37.6933 235.042 38.0533 235.042 38.46V38.58ZM232.552 40.4C232.792 40.4 233.012 40.36 233.212 40.28C233.419 40.1933 233.599 40.07 233.752 39.91C233.906 39.75 234.026 39.56 234.112 39.34C234.199 39.1133 234.242 38.86 234.242 38.58V38.46C234.242 38.1933 234.199 37.95 234.112 37.73C234.026 37.5033 233.906 37.31 233.752 37.15C233.599 36.99 233.419 36.8667 233.212 36.78C233.006 36.6867 232.786 36.64 232.552 36.64C232.319 36.64 232.099 36.6867 231.892 36.78C231.686 36.8667 231.506 36.99 231.352 37.15C231.199 37.31 231.079 37.5033 230.992 37.73C230.906 37.95 230.862 38.1933 230.862 38.46V38.58C230.862 38.86 230.906 39.1133 230.992 39.34C231.079 39.56 231.199 39.75 231.352 39.91C231.506 40.07 231.682 40.1933 231.882 40.28C232.089 40.36 232.312 40.4 232.552 40.4ZM241.255 41H240.475V37.44C240.475 37.2067 240.422 37.0167 240.315 36.87C240.209 36.7167 240.039 36.64 239.805 36.64C239.585 36.64 239.405 36.7233 239.265 36.89C239.132 37.05 239.065 37.3 239.065 37.64V41H238.285V37.4C238.285 37.18 238.225 37 238.105 36.86C237.985 36.7133 237.825 36.64 237.625 36.64C237.385 36.64 237.199 36.7267 237.065 36.9C236.939 37.0733 236.875 37.3 236.875 37.58V41H236.095V36.04H236.875V36.58H236.995C237.082 36.3467 237.209 36.1767 237.375 36.07C237.542 35.9567 237.739 35.9 237.965 35.9C238.205 35.9 238.402 35.9633 238.555 36.09C238.715 36.2167 238.825 36.38 238.885 36.58H239.005C239.232 36.1267 239.592 35.9 240.085 35.9C240.459 35.9 240.745 36.02 240.945 36.26C241.152 36.4933 241.255 36.8 241.255 37.18V41ZM249.331 43H248.551V36.04H249.331V36.82H249.451C249.625 36.52 249.865 36.2933 250.171 36.14C250.478 35.98 250.811 35.9 251.171 35.9C251.478 35.9 251.768 35.9567 252.041 36.07C252.315 36.1833 252.555 36.3467 252.761 36.56C252.975 36.7733 253.141 37.0367 253.261 37.35C253.388 37.6633 253.451 38.02 253.451 38.42V38.62C253.451 39.0267 253.391 39.3867 253.271 39.7C253.151 40.0133 252.985 40.2767 252.771 40.49C252.565 40.7033 252.321 40.8667 252.041 40.98C251.761 41.0867 251.465 41.14 251.151 41.14C250.991 41.14 250.828 41.12 250.661 41.08C250.495 41.0467 250.335 40.9933 250.181 40.92C250.035 40.84 249.898 40.7467 249.771 40.64C249.645 40.5267 249.538 40.3933 249.451 40.24H249.331V43ZM250.991 40.4C251.231 40.4 251.451 40.36 251.651 40.28C251.851 40.1933 252.025 40.0733 252.171 39.92C252.325 39.7667 252.441 39.58 252.521 39.36C252.608 39.14 252.651 38.8933 252.651 38.62V38.42C252.651 38.1533 252.608 37.9133 252.521 37.7C252.441 37.48 252.325 37.2933 252.171 37.14C252.025 36.98 251.848 36.8567 251.641 36.77C251.441 36.6833 251.225 36.64 250.991 36.64C250.758 36.64 250.541 36.6867 250.341 36.78C250.141 36.8667 249.965 36.99 249.811 37.15C249.665 37.31 249.548 37.5033 249.461 37.73C249.375 37.95 249.331 38.1933 249.331 38.46V38.58C249.331 38.8533 249.375 39.1033 249.461 39.33C249.548 39.55 249.665 39.74 249.811 39.9C249.965 40.06 250.141 40.1833 250.341 40.27C250.541 40.3567 250.758 40.4 250.991 40.4ZM258.454 40.1H258.334C258.174 40.42 257.964 40.6733 257.704 40.86C257.444 41.0467 257.114 41.14 256.714 41.14C256.441 41.14 256.188 41.0933 255.954 41C255.728 40.9133 255.531 40.78 255.364 40.6C255.204 40.42 255.078 40.1967 254.984 39.93C254.898 39.6633 254.854 39.3533 254.854 39V36.04H255.634V38.9C255.634 39.42 255.741 39.8 255.954 40.04C256.168 40.28 256.494 40.4 256.934 40.4C257.408 40.4 257.778 40.24 258.044 39.92C258.318 39.5933 258.454 39.16 258.454 38.62V36.04H259.234V42.22C259.234 42.4467 259.161 42.6333 259.014 42.78C258.874 42.9267 258.691 43 258.464 43H255.634V42.28H258.184C258.364 42.28 258.454 42.18 258.454 41.98V40.1ZM264.577 40.16H264.457C264.297 40.4933 264.074 40.74 263.787 40.9C263.507 41.06 263.211 41.14 262.897 41.14C262.571 41.14 262.267 41.0867 261.987 40.98C261.707 40.8667 261.461 40.7033 261.247 40.49C261.041 40.27 260.877 40.0033 260.757 39.69C260.637 39.3767 260.577 39.0133 260.577 38.6V38.44C260.577 38.0333 260.637 37.6733 260.757 37.36C260.877 37.0467 261.041 36.7833 261.247 36.57C261.461 36.35 261.707 36.1833 261.987 36.07C262.267 35.9567 262.564 35.9 262.877 35.9C263.217 35.9 263.524 35.9767 263.797 36.13C264.077 36.2767 264.297 36.5067 264.457 36.82H264.577V36.04H265.357V39.98C265.357 40.18 265.447 40.28 265.627 40.28H265.877V41H265.347C265.121 41 264.934 40.9267 264.787 40.78C264.647 40.6333 264.577 40.4467 264.577 40.22V40.16ZM262.977 40.4C263.211 40.4 263.424 40.3567 263.617 40.27C263.817 40.1833 263.987 40.06 264.127 39.9C264.267 39.74 264.377 39.55 264.457 39.33C264.537 39.1033 264.577 38.8533 264.577 38.58V38.46C264.577 38.1933 264.537 37.95 264.457 37.73C264.377 37.5033 264.264 37.31 264.117 37.15C263.977 36.99 263.807 36.8667 263.607 36.78C263.414 36.6867 263.204 36.64 262.977 36.64C262.744 36.64 262.531 36.6833 262.337 36.77C262.144 36.8567 261.974 36.98 261.827 37.14C261.687 37.2933 261.577 37.4833 261.497 37.71C261.417 37.93 261.377 38.1733 261.377 38.44V38.6C261.377 39.1667 261.524 39.61 261.817 39.93C262.117 40.2433 262.504 40.4 262.977 40.4ZM267.88 41H267.1V36.04H267.88V36.88H268C268.307 36.2267 268.84 35.9 269.6 35.9C270.174 35.9 270.63 36.08 270.97 36.44C271.31 36.7933 271.48 37.3267 271.48 38.04V41H270.7V38.2C270.7 37.68 270.584 37.29 270.35 37.03C270.117 36.77 269.8 36.64 269.4 36.64C268.927 36.64 268.554 36.8033 268.28 37.13C268.014 37.45 267.88 37.88 267.88 38.42V41ZM274.254 37.32C274.254 37.56 274.354 37.7433 274.554 37.87C274.76 37.9967 275.134 38.08 275.674 38.12C276.254 38.1667 276.694 38.3067 276.994 38.54C277.3 38.7667 277.454 39.1 277.454 39.54V39.6C277.454 39.84 277.404 40.0567 277.304 40.25C277.21 40.4367 277.077 40.5967 276.904 40.73C276.737 40.8633 276.53 40.9633 276.284 41.03C276.044 41.1033 275.78 41.14 275.494 41.14C275.107 41.14 274.774 41.09 274.494 40.99C274.22 40.8833 273.99 40.7467 273.804 40.58C273.624 40.4067 273.487 40.2133 273.394 40C273.3 39.78 273.247 39.56 273.234 39.34L273.974 39.16C274.007 39.54 274.154 39.8467 274.414 40.08C274.674 40.3067 275.02 40.42 275.454 40.42C275.82 40.42 276.114 40.35 276.334 40.21C276.56 40.0633 276.674 39.86 276.674 39.6C276.674 39.32 276.564 39.12 276.344 39C276.124 38.88 275.767 38.8033 275.274 38.77C274.7 38.73 274.26 38.5967 273.954 38.37C273.647 38.1433 273.494 37.8133 273.494 37.38V37.32C273.494 37.0867 273.544 36.8833 273.644 36.71C273.744 36.53 273.877 36.38 274.044 36.26C274.217 36.14 274.41 36.05 274.624 35.99C274.837 35.93 275.06 35.9 275.294 35.9C275.62 35.9 275.907 35.9467 276.154 36.04C276.4 36.1267 276.607 36.2433 276.774 36.39C276.94 36.53 277.067 36.6933 277.154 36.88C277.247 37.0667 277.307 37.2533 277.334 37.44L276.594 37.62C276.56 37.3 276.43 37.05 276.204 36.87C275.984 36.69 275.694 36.6 275.334 36.6C275.194 36.6 275.057 36.6167 274.924 36.65C274.797 36.6767 274.684 36.72 274.584 36.78C274.484 36.84 274.404 36.9167 274.344 37.01C274.284 37.0967 274.254 37.2 274.254 37.32ZM282.947 40.1H282.827C282.667 40.42 282.457 40.6733 282.197 40.86C281.937 41.0467 281.607 41.14 281.207 41.14C280.933 41.14 280.68 41.0933 280.447 41C280.22 40.9133 280.023 40.78 279.857 40.6C279.697 40.42 279.57 40.1967 279.477 39.93C279.39 39.6633 279.347 39.3533 279.347 39V36.04H280.127V38.9C280.127 39.42 280.233 39.8 280.447 40.04C280.66 40.28 280.987 40.4 281.427 40.4C281.9 40.4 282.27 40.24 282.537 39.92C282.81 39.5933 282.947 39.16 282.947 38.62V36.04H283.727V42.22C283.727 42.4467 283.653 42.6333 283.507 42.78C283.367 42.9267 283.183 43 282.957 43H280.127V42.28H282.677C282.857 42.28 282.947 42.18 282.947 41.98V40.1ZM286.5 37.32C286.5 37.56 286.6 37.7433 286.8 37.87C287.006 37.9967 287.38 38.08 287.92 38.12C288.5 38.1667 288.94 38.3067 289.24 38.54C289.546 38.7667 289.7 39.1 289.7 39.54V39.6C289.7 39.84 289.65 40.0567 289.55 40.25C289.456 40.4367 289.323 40.5967 289.15 40.73C288.983 40.8633 288.776 40.9633 288.53 41.03C288.29 41.1033 288.026 41.14 287.74 41.14C287.353 41.14 287.02 41.09 286.74 40.99C286.466 40.8833 286.236 40.7467 286.05 40.58C285.87 40.4067 285.733 40.2133 285.64 40C285.546 39.78 285.493 39.56 285.48 39.34L286.22 39.16C286.253 39.54 286.4 39.8467 286.66 40.08C286.92 40.3067 287.266 40.42 287.7 40.42C288.066 40.42 288.36 40.35 288.58 40.21C288.806 40.0633 288.92 39.86 288.92 39.6C288.92 39.32 288.81 39.12 288.59 39C288.37 38.88 288.013 38.8033 287.52 38.77C286.946 38.73 286.506 38.5967 286.2 38.37C285.893 38.1433 285.74 37.8133 285.74 37.38V37.32C285.74 37.0867 285.79 36.8833 285.89 36.71C285.99 36.53 286.123 36.38 286.29 36.26C286.463 36.14 286.656 36.05 286.87 35.99C287.083 35.93 287.306 35.9 287.54 35.9C287.866 35.9 288.153 35.9467 288.4 36.04C288.646 36.1267 288.853 36.2433 289.02 36.39C289.186 36.53 289.313 36.6933 289.4 36.88C289.493 37.0667 289.553 37.2533 289.58 37.44L288.84 37.62C288.806 37.3 288.676 37.05 288.45 36.87C288.23 36.69 287.94 36.6 287.58 36.6C287.44 36.6 287.303 36.6167 287.17 36.65C287.043 36.6767 286.93 36.72 286.83 36.78C286.73 36.84 286.65 36.9167 286.59 37.01C286.53 37.0967 286.5 37.2 286.5 37.32ZM299.256 34.56C299.256 34.3667 299.322 34.2033 299.456 34.07C299.596 33.93 299.762 33.86 299.956 33.86C300.149 33.86 300.312 33.93 300.446 34.07C300.586 34.2033 300.656 34.3667 300.656 34.56C300.656 34.7533 300.586 34.92 300.446 35.06C300.312 35.1933 300.149 35.26 299.956 35.26C299.762 35.26 299.596 35.1933 299.456 35.06C299.322 34.92 299.256 34.7533 299.256 34.56ZM297.836 40.28H299.576V36.76H298.016V36.04H300.356V40.28H301.976V41H297.836V40.28ZM308.609 41H307.829V37.44C307.829 37.2067 307.775 37.0167 307.669 36.87C307.562 36.7167 307.392 36.64 307.159 36.64C306.939 36.64 306.759 36.7233 306.619 36.89C306.485 37.05 306.419 37.3 306.419 37.64V41H305.639V37.4C305.639 37.18 305.579 37 305.459 36.86C305.339 36.7133 305.179 36.64 304.979 36.64C304.739 36.64 304.552 36.7267 304.419 36.9C304.292 37.0733 304.229 37.3 304.229 37.58V41H303.449V36.04H304.229V36.58H304.349C304.435 36.3467 304.562 36.1767 304.729 36.07C304.895 35.9567 305.092 35.9 305.319 35.9C305.559 35.9 305.755 35.9633 305.909 36.09C306.069 36.2167 306.179 36.38 306.239 36.58H306.359C306.585 36.1267 306.945 35.9 307.439 35.9C307.812 35.9 308.099 36.02 308.299 36.26C308.505 36.4933 308.609 36.8 308.609 37.18V41ZM310.562 43H309.782V36.04H310.562V36.82H310.682C310.855 36.52 311.095 36.2933 311.402 36.14C311.708 35.98 312.042 35.9 312.402 35.9C312.708 35.9 312.998 35.9567 313.272 36.07C313.545 36.1833 313.785 36.3467 313.992 36.56C314.205 36.7733 314.372 37.0367 314.492 37.35C314.618 37.6633 314.682 38.02 314.682 38.42V38.62C314.682 39.0267 314.622 39.3867 314.502 39.7C314.382 40.0133 314.215 40.2767 314.002 40.49C313.795 40.7033 313.552 40.8667 313.272 40.98C312.992 41.0867 312.695 41.14 312.382 41.14C312.222 41.14 312.058 41.12 311.892 41.08C311.725 41.0467 311.565 40.9933 311.412 40.92C311.265 40.84 311.128 40.7467 311.002 40.64C310.875 40.5267 310.768 40.3933 310.682 40.24H310.562V43ZM312.222 40.4C312.462 40.4 312.682 40.36 312.882 40.28C313.082 40.1933 313.255 40.0733 313.402 39.92C313.555 39.7667 313.672 39.58 313.752 39.36C313.838 39.14 313.882 38.8933 313.882 38.62V38.42C313.882 38.1533 313.838 37.9133 313.752 37.7C313.672 37.48 313.555 37.2933 313.402 37.14C313.255 36.98 313.078 36.8567 312.872 36.77C312.672 36.6833 312.455 36.64 312.222 36.64C311.988 36.64 311.772 36.6867 311.572 36.78C311.372 36.8667 311.195 36.99 311.042 37.15C310.895 37.31 310.778 37.5033 310.692 37.73C310.605 37.95 310.562 38.1933 310.562 38.46V38.58C310.562 38.8533 310.605 39.1033 310.692 39.33C310.778 39.55 310.895 39.74 311.042 39.9C311.195 40.06 311.372 40.1833 311.572 40.27C311.772 40.3567 311.988 40.4 312.222 40.4ZM320.765 38.58C320.765 38.9933 320.695 39.36 320.555 39.68C320.422 39.9933 320.242 40.26 320.015 40.48C319.788 40.6933 319.522 40.8567 319.215 40.97C318.915 41.0833 318.602 41.14 318.275 41.14C317.942 41.14 317.625 41.0833 317.325 40.97C317.025 40.8567 316.762 40.6933 316.535 40.48C316.308 40.26 316.125 39.9933 315.985 39.68C315.852 39.36 315.785 38.9933 315.785 38.58V38.46C315.785 38.0533 315.852 37.6933 315.985 37.38C316.125 37.06 316.308 36.79 316.535 36.57C316.768 36.35 317.035 36.1833 317.335 36.07C317.635 35.9567 317.948 35.9 318.275 35.9C318.602 35.9 318.915 35.9567 319.215 36.07C319.515 36.1833 319.778 36.35 320.005 36.57C320.238 36.79 320.422 37.06 320.555 37.38C320.695 37.6933 320.765 38.0533 320.765 38.46V38.58ZM318.275 40.4C318.515 40.4 318.735 40.36 318.935 40.28C319.142 40.1933 319.322 40.07 319.475 39.91C319.628 39.75 319.748 39.56 319.835 39.34C319.922 39.1133 319.965 38.86 319.965 38.58V38.46C319.965 38.1933 319.922 37.95 319.835 37.73C319.748 37.5033 319.628 37.31 319.475 37.15C319.322 36.99 319.142 36.8667 318.935 36.78C318.728 36.6867 318.508 36.64 318.275 36.64C318.042 36.64 317.822 36.6867 317.615 36.78C317.408 36.8667 317.228 36.99 317.075 37.15C316.922 37.31 316.802 37.5033 316.715 37.73C316.628 37.95 316.585 38.1933 316.585 38.46V38.58C316.585 38.86 316.628 39.1133 316.715 39.34C316.802 39.56 316.922 39.75 317.075 39.91C317.228 40.07 317.405 40.1933 317.605 40.28C317.812 40.36 318.035 40.4 318.275 40.4ZM321.928 36.04H323.728V36.7H323.848C323.975 36.4267 324.155 36.2267 324.388 36.1C324.621 35.9667 324.888 35.9 325.188 35.9C325.688 35.9 326.091 36.0633 326.398 36.39C326.705 36.7167 326.868 37.1933 326.888 37.82L326.068 37.94C326.068 37.48 325.958 37.15 325.738 36.95C325.518 36.7433 325.248 36.64 324.928 36.64C324.721 36.64 324.541 36.68 324.388 36.76C324.241 36.84 324.118 36.95 324.018 37.09C323.918 37.23 323.845 37.3933 323.798 37.58C323.751 37.7667 323.728 37.9667 323.728 38.18V40.28H324.988V41H321.808V40.28H322.948V36.76H321.928V36.04ZM328.161 36.04H329.721V34H330.501V36.04H332.421V36.76H330.501V39.98C330.501 40.18 330.591 40.28 330.771 40.28H332.181V41H330.491C330.264 41 330.078 40.9267 329.931 40.78C329.791 40.6333 329.721 40.4467 329.721 40.22V36.76H328.161V36.04ZM344.777 36L343.897 36.88L343.397 37.16L343.447 37.28L343.897 37.14H345.247V37.86H343.897L343.447 37.72L343.397 37.84L343.897 38.12L344.777 39L344.267 39.51L343.387 38.63L343.107 38.13L342.987 38.18L343.127 38.63V39.98H342.407V38.63L342.547 38.18L342.427 38.13L342.147 38.63L341.267 39.51L340.757 39L341.637 38.12L342.137 37.84L342.087 37.72L341.637 37.86H340.287V37.14H341.637L342.087 37.28L342.137 37.16L341.637 36.88L340.757 36L341.267 35.49L342.147 36.37L342.427 36.87L342.547 36.82L342.407 36.37V35.02H343.127V36.37L342.987 36.82L343.107 36.87L343.387 36.37L344.267 35.49L344.777 36Z" fill="#ECECEC"/>
</g>
<defs>
<linearGradient id="paint0_linear_1_2" x1="0" y1="83" x2="575" y2="83" gradientUnits="userSpaceOnUse">
<stop stop-color="#2563EB" stop-opacity="0.32"/>
<stop offset="0.5" stop-color="#1E40AF" stop-opacity="0.75"/>
<stop offset="1" stop-color="#6B7280"/>
</linearGradient>
<clipPath id="clip0_1_2">
<rect width="575" height="166" fill="white"/>
</clipPath>
</defs>
</svg>
