<?xml version="1.0" encoding="UTF-8"?>
<svg id="Layer_1" data-name="Layer 1" xmlns="http://www.w3.org/2000/svg" viewBox="0 0 216 216">
  <defs>
    <style>
      .cls-1 {
        fill: #fdb71a;
        stroke-width: 0px;
      }
    </style>
  </defs>
  <path class="cls-1" d="m63.73,53.68c1.68,1.12,3.49,1.47,5.23,1,3.34-.89,5.21-4.43,5.41-4.83,1.07-2.15,3.13-3.4,6.1-3.72,5.78-.61,13.67,2.63,17.24,7.1,3.06,3.83,4.45,9.06,3.62,13.67-.4,2.24-1.52,5.28-4.54,7.1-3.29,1.97-4.91,4.15-4.82,6.47.12,3.13,3.27,4.72,3.38,4.77,7.43,4.13,14.77,2.74,19.61.86,6.94-2.7,12.4-7.84,13.47-11.06.46-1.4,2.71-2.2,4.11-1.8.4.12,1.16.34.72,2.09-1.64,6.55,1.35,10.26,1.95,10.92,1.78,2.2,4.04,3.45,6.72,3.7.33.03.66.05.99.05,6.04,0,11.69-4.88,11.95-5.12,2.05-2.05,3.95-5.61,3.12-9.44-.85-3.9-4.17-6.96-9.89-9.11-2.64-.99-4.17-2.17-4.33-3.33-.22-1.69,2.19-4.05,3.39-4.91l9.17-8.84c3.04-2.92,4.36-5.82,3.92-8.61-.55-3.46-3.7-5.3-4.28-5.6-47.18-31.88-97.68-1.81-98.26-1.45-2.98,1.99-4.5,4.38-4.5,7.12,0,5.36,5.99,9.97,10.49,12.97Zm-3.65-16.45c1.99-1.18,49.29-28.54,93.6,1.47l.23.13c.08.04,1.86.99,2.1,2.51.19,1.27-.74,2.97-2.64,4.79l-8.86,8.57c-.94.69-5.59,4.37-4.99,8.87.38,2.91,2.77,5.21,7.1,6.83,4.19,1.57,6.67,3.63,7.17,5.96.49,2.28-.93,4.45-1.82,5.35-.05.04-5.23,4.36-9.61,3.94-1.5-.14-2.74-.84-3.8-2.16l-.13-.14c-.09-.09-2.09-2.34-.94-6.95,1.07-4.28-1.33-6.6-3.71-7.3-.63-.18-1.31-.28-2.02-.28-2.79,0-6.31,1.52-7.42,4.86-.54,1.61-4.89,6.04-10.93,8.39-3.98,1.55-9.99,2.7-16.01-.64-.43-.22-1.08-.79-1.09-1.12,0,0,0-.96,2.72-2.59,3.45-2.07,5.78-5.64,6.58-10.05,1.04-5.8-.68-12.37-4.5-17.15-4.52-5.65-13.78-9.47-21.09-8.7-4.48.47-7.77,2.58-9.52,6.08-.29.57-1.4,2.27-2.65,2.59-.52.14-1.08,0-1.7-.42-7.08-4.72-8.56-7.7-8.56-9.37,0-1.21.83-2.35,2.51-3.48Zm-10.6,105.01c-2.17-1.03-3.47-3.06-3.84-6.03-.73-5.77,2.35-13.73,6.74-17.39,3.76-3.14,8.97-4.63,13.59-3.9,2.24.35,5.31,1.4,7.19,4.39,2.04,3.24,4.24,4.82,6.57,4.68,3.12-.19,4.65-3.37,4.7-3.48,3.97-7.51,2.43-14.82.44-19.63-2.85-6.88-8.1-12.23-11.34-13.23-1.42-.44-2.26-2.67-1.88-4.08.11-.41.31-1.16,2.07-.76,6.59,1.5,10.24-1.57,10.88-2.18,2.16-1.83,3.36-4.12,3.56-6.8.47-6.41-5.26-12.75-5.34-12.84-2.1-2.01-5.69-3.83-9.51-2.92-3.88.93-6.87,4.32-8.9,10.07-.93,2.66-2.08,4.22-3.24,4.4-1.69.26-4.06-2.06-4.98-3.28l-9.03-8.99c-2.98-2.98-5.9-4.23-8.69-3.73-3.45.63-5.22,3.81-5.51,4.4-30.78,47.67.24,97.69.61,98.27,2.01,2.88,4.39,4.35,7.06,4.35h.15c5.36-.11,9.84-6.2,12.75-10.76,1.08-1.7,1.39-3.51.89-5.25-.96-3.33-4.54-5.11-4.95-5.31Zm.4,8.22c-4.57,7.17-7.52,8.72-9.19,8.76-1.18.05-2.34-.76-3.53-2.45-1.32-2.14-29.51-48.75-.48-93.59l.13-.24s.93-1.86,2.44-2.14c1.27-.23,2.99.67,4.86,2.54l8.75,8.68c.71.92,4.49,5.49,8.98,4.81,2.9-.44,5.15-2.88,6.68-7.24,1.48-4.22,3.49-6.74,5.81-7.29,2.26-.55,4.46.84,5.38,1.71.18.21,4.46,5.14,4.14,9.53-.11,1.53-.81,2.78-2.21,3.96-.09.09-2.26,2.17-6.94,1.1-4.3-.97-6.57,1.47-7.22,3.87-.92,3.42.93,8.15,4.78,9.34,1.62.5,6.14,4.75,8.62,10.75,1.63,3.95,2.91,9.94-.3,16.02-.21.44-.77,1.09-1.08,1.11-.04-.02-.99-.01-2.66-2.66-2.14-3.4-5.76-5.66-10.18-6.36-5.82-.92-12.36.94-17.05,4.86-5.56,4.64-9.18,13.98-8.26,21.26.57,4.47,2.74,7.71,6.28,9.39.57.28,2.29,1.35,2.65,2.6.15.52.03,1.06-.39,1.71ZM182.43,57.42c-2.05-2.94-4.51-4.4-7.22-4.35-5.36.11-9.84,6.2-12.75,10.76-1.08,1.7-1.39,3.51-.89,5.25.96,3.33,4.54,5.11,4.95,5.31,2.17,1.03,3.47,3.06,3.84,6.02.73,5.76-2.35,13.73-6.73,17.39-3.76,3.14-8.97,4.63-13.59,3.9-2.25-.35-5.31-1.4-7.19-4.39-2.04-3.24-4.25-4.82-6.57-4.68-3.12.19-4.65,3.37-4.7,3.48-3.97,7.51-2.43,14.82-.44,19.63,2.85,6.88,8.1,12.23,11.34,13.23,1.42.44,2.26,2.67,1.88,4.08-.11.41-.31,1.16-2.07.76-6.57-1.51-10.24,1.57-10.88,2.18-2.16,1.83-3.36,4.11-3.56,6.8-.46,6.38,5.08,12.55,5.34,12.84,2.09,2.01,5.69,3.83,9.51,2.92,3.88-.93,6.87-4.32,8.9-10.07.93-2.66,2.08-4.22,3.24-4.4,1.69-.26,4.06,2.06,4.99,3.28l9.03,8.99c2.55,2.55,5.07,3.84,7.49,3.84.4,0,.8-.04,1.2-.11,3.45-.62,5.22-3.81,5.51-4.4,30.83-47.75-.24-97.69-.61-98.27Zm-3.1,96.03l-.13.23s-.91,1.87-2.46,2.14c-1.26.22-2.98-.68-4.84-2.54l-8.77-8.7c-.76-.98-4.5-5.45-8.96-4.78-2.9.44-5.15,2.88-6.68,7.25-1.48,4.22-3.49,6.74-5.81,7.29-2.27.54-4.47-.84-5.39-1.71-1.24-1.39-4.4-5.8-4.13-9.51.11-1.53.8-2.78,2.21-3.97.09-.09,2.27-2.17,6.94-1.1,4.29.99,6.57-1.46,7.22-3.87.92-3.42-.93-8.15-4.79-9.34-1.62-.5-6.14-4.76-8.61-10.75-1.63-3.95-2.91-9.94.3-16.02.24-.49.79-1.1,1.12-1.11,0,0,.93-.03,2.62,2.66,2.14,3.4,5.76,5.66,10.18,6.36,5.82.92,12.35-.94,17.05-4.86,5.56-4.64,9.18-13.98,8.26-21.26-.57-4.47-2.74-7.71-6.28-9.39-.57-.28-2.29-1.35-2.65-2.6-.15-.52-.02-1.07.39-1.71,4.57-7.17,7.52-8.72,9.17-8.76,1.26.01,2.39.79,3.55,2.44,1.22,1.97,29.57,48.68.49,93.61Zm-27.29,7.92c-1.7-1.08-3.52-1.39-5.25-.89-3.33.96-5.11,4.54-5.3,4.95-1.03,2.17-3.06,3.47-6.03,3.84-5.76.75-13.72-2.34-17.39-6.73-3.14-3.76-4.64-8.97-3.91-13.59.35-2.25,1.4-5.31,4.39-7.19,3.24-2.04,4.82-4.25,4.68-6.57-.18-3.13-3.37-4.65-3.48-4.7-7.51-3.97-14.82-2.43-19.63-.44-6.89,2.85-12.23,8.1-13.23,11.34-.44,1.42-2.67,2.26-4.08,1.88-.41-.11-1.16-.31-.76-2.07,1.5-6.58-1.57-10.24-2.18-10.88-1.83-2.16-4.11-3.36-6.8-3.56-6.43-.48-12.75,5.26-12.84,5.34-2.01,2.09-3.83,5.69-2.92,9.51.92,3.88,4.31,6.87,10.07,8.9,2.66.93,4.22,2.08,4.4,3.24.26,1.69-2.06,4.06-3.28,4.98l-8.99,9.03c-2.98,2.98-4.24,5.91-3.73,8.69.62,3.45,3.81,5.22,4.4,5.51,14,9.04,29.56,13.62,46.26,13.62,29.38,0,51.71-14.04,52.01-14.23,2.94-2.05,4.4-4.48,4.35-7.22-.11-5.35-6.2-9.84-10.76-12.75Zm3.99,16.37c-1.31.81-22.31,13.55-49.42,13.55-13.75,0-29.07-3.28-44.18-13.06l-.23-.13s-1.87-.91-2.14-2.46c-.22-1.26.68-2.98,2.54-4.84l8.7-8.77c.98-.76,5.46-4.51,4.78-8.96-.44-2.9-2.88-5.15-7.24-6.68-4.22-1.48-6.74-3.49-7.29-5.81-.54-2.27.84-4.47,1.71-5.38.21-.18,5.14-4.49,9.53-4.14,1.53.11,2.78.81,3.96,2.21.09.09,2.16,2.27,1.1,6.94-.98,4.3,1.47,6.57,3.87,7.22,3.43.92,8.15-.94,9.34-4.78.5-1.62,4.75-6.14,10.75-8.62,3.95-1.63,9.94-2.91,16.02.3.49.24,1.1.79,1.11,1.1,0,0,.02.96-2.66,2.64-3.4,2.14-5.66,5.76-6.36,10.18-.92,5.82.94,12.35,4.86,17.05,4.64,5.55,13.98,9.18,21.26,8.26,4.47-.57,7.71-2.74,9.39-6.28.28-.57,1.35-2.29,2.6-2.65.53-.15,1.07-.02,1.71.39,7.17,4.57,8.72,7.52,8.75,9.18.03,1.21-.78,2.37-2.44,3.53Z"/>
</svg>