<?xml version="1.0" encoding="UTF-8"?>
<svg id="Layer_1" data-name="Layer 1" xmlns="http://www.w3.org/2000/svg" viewBox="0 0 216 216">
  <defs>
    <style>
      .cls-1 {
        fill: #fdb71a;
        stroke-width: 0px;
      }
    </style>
  </defs>
  <path class="cls-1" d="m107.5,137.62c.38,0,.72.2.91.51.11.19.16.41.13.64l-4.41,43.36c-.21,2.03-1.9,3.56-3.94,3.56h0c-.13,0-.27,0-.4-.02-1.25-.13-2.38-.85-3.02-1.94-.43-.73-.61-1.56-.52-2.4.02-.16.05-.34.09-.52l10.14-42.39c.1-.42.43-.73.85-.79.05,0,.11-.01.16-.01m0-4.07c-.26,0-.51.02-.76.06-2.06.31-3.72,1.83-4.21,3.87l-10.14,42.39c-.09.37-.15.72-.18,1.05-.17,1.7.19,3.39,1.06,4.87,1.29,2.2,3.58,3.67,6.12,3.93.28.03.55.04.81.04,4.13,0,7.57-3.1,7.98-7.22l4.41-43.36c.11-1.09-.12-2.17-.67-3.11-.91-1.56-2.61-2.52-4.42-2.52h0Z"/>
  <path class="cls-1" d="m123.11,136.09c.31,0,.61.16.78.43l25.72,38.95c1.05,1.59.61,3.73-.98,4.78-.57.37-1.22.57-1.89.57-.23,0-.47-.02-.7-.07-.9-.18-1.68-.71-2.19-1.48-.03-.05-.07-.1-.1-.15-.03-.05-.06-.11-.09-.16l-21.41-41.48c-.24-.46-.08-.99.36-1.25.15-.09.32-.13.49-.13m0-4.07c-.89,0-1.78.24-2.55.7-2.3,1.35-3.14,4.26-1.91,6.63l21.41,41.48c.07.13.13.24.19.35.07.12.15.24.22.36,1.09,1.66,2.79,2.8,4.75,3.2.49.1,1,.15,1.51.15,1.47,0,2.9-.43,4.14-1.25,1.67-1.11,2.82-2.8,3.22-4.77.4-1.97.02-3.98-1.09-5.65l-25.72-38.95c-.93-1.41-2.49-2.26-4.18-2.26h0Z"/>
  <path class="cls-1" d="m56.58,159.91c1.21,0,2.35.73,2.9,1.86.54,1.11.4,2.37-.37,3.37l-4.62,5.94c-.99,1.27-2.52,2.04-4.08,2.04h0c-.78,0-1.51-.19-2.18-.55-1.27-.69-2.16-1.89-2.45-3.28-.29-1.39.05-2.84.92-3.96.4-.51.92-.96,1.5-1.28l6.82-3.72c.51-.28,1.03-.42,1.57-.42m0-4.07c-1.23,0-2.41.31-3.52.91l-6.82,3.72c-1.08.6-2.03,1.41-2.76,2.35-1.61,2.07-2.22,4.72-1.69,7.29.53,2.56,2.17,4.76,4.48,6.02,1.28.7,2.67,1.05,4.13,1.05,2.81,0,5.54-1.35,7.29-3.61l4.62-5.94c1.73-2.22,2.04-5.15.82-7.66-1.23-2.52-3.8-4.15-6.56-4.15h0Z"/>
  <path class="cls-1" d="m95.13,129.4c.07,0,.14,0,.21.02.29.06.54.25.69.5.24.41.18.92-.16,1.26l-24.77,24.88c-.75.75-1.74,1.16-2.8,1.17h0c-1.06,0-2.05-.41-2.8-1.15-.24-.24-.45-.51-.62-.81-.91-1.55-.66-3.52.61-4.8.14-.15.32-.3.5-.42l28.54-20.45c.18-.13.39-.2.61-.2m0-4.07c-1.07,0-2.1.33-2.98.96l-28.54,20.45c-.37.27-.71.56-1.01.86-2.57,2.58-3.08,6.58-1.24,9.73.35.59.77,1.14,1.26,1.63,1.52,1.51,3.53,2.34,5.67,2.34,2.16,0,4.18-.84,5.69-2.36l24.77-24.88c1.64-1.64,1.96-4.19.79-6.19-.73-1.24-1.95-2.13-3.35-2.43-.35-.07-.7-.11-1.06-.11h0Z"/>
  <path class="cls-1" d="m163.59,133.12c.09,0,.19.01.28.03l26.18,6.36c1.79.43,3,2.05,2.82,3.76-.19,1.88-1.76,3.29-3.65,3.29-.29,0-.57-.03-.85-.1-.2-.05-.42-.12-.61-.21l-24.63-11.04c-.48-.22-.72-.69-.62-1.2.11-.53.56-.9,1.08-.9m0-4.07c-2.46,0-4.54,1.69-5.06,4.12-.51,2.39.69,4.76,2.93,5.77l24.63,11.04c.44.19.89.35,1.31.45.6.15,1.21.22,1.82.22,3.98,0,7.29-2.99,7.7-6.94.38-3.72-2.16-7.22-5.91-8.13l-26.18-6.36c-.41-.1-.83-.15-1.24-.15h0Z"/>
  <path class="cls-1" d="m129.45,122.22c.07,0,.15,0,.22.02l20.82,4.34c1.1.23,2.06.92,2.62,1.89.5.85.66,1.86.46,2.82-.38,1.84-2.02,3.17-3.9,3.17h0c-.27,0-.54-.03-.81-.08-.35-.07-.7-.2-1.02-.36l-18.87-9.82c-.18-.09-.32-.23-.42-.4-.21-.35-.18-.8.06-1.14.2-.27.5-.43.84-.43m0-4.07c-1.64,0-3.18.79-4.14,2.12-1.18,1.65-1.29,3.84-.27,5.58.49.84,1.2,1.51,2.06,1.95l18.86,9.82c.67.35,1.36.59,2.07.74.55.11,1.1.17,1.65.17,3.79,0,7.11-2.7,7.88-6.41.41-1.96.08-3.99-.94-5.71-1.15-1.96-3.08-3.35-5.31-3.81l-20.82-4.33c-.35-.07-.7-.11-1.05-.11h0Z"/>
  <path class="cls-1" d="m28.2,111.93c.23,0,.46.02.69.05l16.17,2.34c1.37.2,1.99,1.29,1.99,2.29,0,1-.6,2.1-1.96,2.31l-15.9,2.51c-.27.04-.55.06-.82.06h0c-2.18,0-4.08-1.3-4.72-3.24-.45-1.36-.28-2.83.45-4.03.74-1.21,1.96-2.02,3.35-2.24.24-.04.49-.06.74-.06m0-4.07c-.47,0-.93.04-1.38.11-2.57.41-4.83,1.92-6.19,4.14-1.36,2.22-1.67,4.93-.84,7.42,1.19,3.61,4.64,6.03,8.58,6.03.49,0,.98-.04,1.45-.11l15.9-2.51c3.15-.5,5.42-3.17,5.4-6.36-.02-3.19-2.32-5.83-5.48-6.29l-16.17-2.34c-.43-.06-.85-.09-1.28-.09h0Z"/>
  <path class="cls-1" d="m59.09,113.14c.11,0,.23,0,.34.01l31.23,2.71c.34.03.64.21.81.5.18.31.19.7.03,1.02-.16.32-.46.52-.83.56l-31.02,3.09c-.14.01-.28.02-.42.02-1.48,0-2.88-.78-3.59-1.98-.17-.29-.3-.6-.38-.92-.3-1.14-.1-2.34.57-3.3.66-.96,1.71-1.57,2.87-1.69.12-.01.25-.02.39-.02m0-4.07c-.27,0-.54.01-.79.04-2.35.23-4.47,1.48-5.81,3.42-1.34,1.94-1.76,4.37-1.15,6.67.18.67.45,1.32.8,1.93,1.45,2.47,4.17,4,7.1,4,.27,0,.55-.01.82-.04l31.02-3.09c1.74-.17,3.26-1.21,4.05-2.76.8-1.57.74-3.41-.15-4.92-.83-1.42-2.32-2.36-3.97-2.5l-31.23-2.71c-.25-.02-.48-.03-.69-.03h0Z"/>
  <path class="cls-1" d="m156.52,95.98c1.41,0,2.72.75,3.43,1.96.05.08.09.17.13.25.97,1.96.16,4.35-1.8,5.32-.23.12-.5.22-.77.29l-27.09,6.95c-.09.02-.18.03-.27.03-.37,0-.7-.19-.89-.51-.15-.26-.19-.56-.1-.84.08-.27.27-.5.54-.63l25.06-12.41c.55-.27,1.14-.41,1.75-.41m0-4.07c-1.25,0-2.44.28-3.56.83l-25.06,12.41c-1.27.63-2.23,1.77-2.63,3.12-.4,1.35-.22,2.83.49,4.06.92,1.56,2.6,2.53,4.4,2.53.43,0,.86-.05,1.28-.16l27.09-6.95c.57-.15,1.08-.34,1.57-.58,3.97-1.97,5.6-6.8,3.63-10.77-.08-.17-.18-.34-.27-.51-1.43-2.44-4.09-3.96-6.94-3.96h0Z"/>
  <path class="cls-1" d="m72.09,80.39c.79,0,1.56.24,2.22.68.2.14.4.3.59.48l21.28,21.4c.07.07.12.14.17.22.25.42.16.95-.2,1.28-.19.18-.45.28-.71.28-.21,0-.41-.06-.59-.18l-24.99-16.92c-.49-.33-.9-.76-1.2-1.28-.77-1.31-.71-2.97.14-4.23.74-1.09,1.97-1.74,3.29-1.74m0-4.07c-2.67,0-5.16,1.32-6.66,3.53-1.73,2.55-1.84,5.91-.28,8.57.61,1.04,1.43,1.91,2.43,2.59l24.99,16.92c.85.58,1.84.88,2.87.88,1.3,0,2.54-.49,3.49-1.38,1.76-1.65,2.14-4.24.93-6.31-.22-.37-.48-.72-.79-1.03l-21.28-21.4c-.39-.38-.78-.7-1.19-.98-1.34-.91-2.89-1.38-4.5-1.38h0Z"/>
  <path class="cls-1" d="m136.84,67.77c.56,0,1.11.12,1.62.35.75.34,1.37.9,1.79,1.61.65,1.11.72,2.47.2,3.64-.09.21-.22.44-.36.64l-17.82,25.44c-.2.29-.51.45-.85.45h-.04c-.36-.02-.69-.22-.87-.53-.17-.29-.19-.64-.04-.95l12.76-28.32c.64-1.42,2.06-2.34,3.62-2.34m0-4.07c-3.16,0-6.03,1.86-7.33,4.73l-12.76,28.32c-.68,1.51-.59,3.26.24,4.68.89,1.52,2.47,2.46,4.22,2.53h.04s.04,0,.04,0h.04s.09,0,.09,0c1.66,0,3.22-.82,4.18-2.18l17.82-25.45c.29-.43.55-.87.74-1.3,1.07-2.37.92-5.12-.39-7.37-.85-1.44-2.1-2.57-3.63-3.26-1.04-.47-2.15-.71-3.3-.71h0Z"/>
  <path class="cls-1" d="m186.95,84.76c1.5,0,2.86.64,3.74,1.75.88,1.12,1.23,2.56.95,3.94-.28,1.38-1.15,2.57-2.38,3.25-.41.22-.87.4-1.33.5l-16.61,3.48c-.17.04-.34.05-.51.05-1.02,0-1.88-.69-2.14-1.71-.26-1.02.17-2.01,1.1-2.52l14.64-8.09c.78-.43,1.66-.66,2.55-.66m0-4.07c-1.57,0-3.14.4-4.51,1.16l-14.64,8.09c-2.57,1.42-3.8,4.27-3.07,7.1.72,2.8,3.22,4.76,6.08,4.76.45,0,.9-.05,1.34-.14l16.6-3.48c.87-.19,1.72-.5,2.47-.92,2.28-1.26,3.89-3.45,4.4-6,.52-2.55-.11-5.2-1.74-7.27-1.65-2.1-4.18-3.31-6.94-3.31h0Z"/>
  <path class="cls-1" d="m101.97,62.2c1.42,0,2.7.73,3.41,1.96.17.29.3.6.39.93.07.23.11.48.13.73l2.65,30.61c.04.5-.25.93-.72,1.08-.11.03-.22.05-.33.05-.37,0-.71-.19-.89-.51-.05-.08-.08-.16-.11-.25l-8.32-29.39c-.55-1.95.34-4.03,2.07-4.83.54-.25,1.12-.38,1.71-.38m0-4.07c-1.19,0-2.35.26-3.43.77-3.52,1.64-5.35,5.78-4.26,9.63l8.32,29.39c.12.42.29.83.51,1.2.91,1.55,2.6,2.52,4.4,2.52.53,0,1.06-.08,1.56-.24,2.29-.73,3.74-2.91,3.54-5.31l-2.65-30.61c-.05-.53-.14-1.02-.27-1.5-.19-.65-.45-1.29-.8-1.87-1.46-2.49-4.05-3.97-6.93-3.97h0Z"/>
  <path class="cls-1" d="m45.78,59.89c.54,0,1.05.16,1.5.47.11.08.24.18.35.29l14.17,13.95c.27.27.35.65.21.99-.14.35-.48.59-.85.59h0c-.18,0-.36-.06-.52-.17l-16.25-11.25c-1.11-.77-1.53-2.2-.99-3.35.44-.93,1.36-1.51,2.38-1.51m0-4.07c-2.61,0-4.93,1.47-6.06,3.83-1.39,2.92-.38,6.55,2.34,8.44l16.25,11.25c.84.58,1.83.89,2.84.89,2.03,0,3.84-1.22,4.62-3.11.77-1.87.33-4-1.12-5.43l-14.17-13.95c-.29-.28-.59-.53-.89-.73-1.12-.78-2.44-1.19-3.81-1.19h0Z"/>
  <path class="cls-1" d="m150.59,42.49c.25,0,.5.03.74.08,1.12.24,2.08.94,2.62,1.94.54,1,.62,2.18.21,3.23-.13.35-.33.69-.56.99l-7.87,10.02c-.38.49-.92.76-1.51.76h0c-.65,0-1.29-.34-1.66-.88-.36-.53-.43-1.16-.19-1.79l4.52-11.71c.61-1.58,2.1-2.64,3.7-2.64m0-4.07c-3.27,0-6.28,2.11-7.5,5.25l-4.52,11.7c-.73,1.89-.5,3.91.63,5.56,1.13,1.66,3.01,2.65,5.02,2.65,1.84,0,3.55-.84,4.71-2.31l7.87-10.02c.49-.63.88-1.33,1.16-2.04.84-2.18.68-4.6-.43-6.64-1.11-2.05-3.07-3.5-5.36-3.98-.51-.11-1.05-.16-1.57-.16h0Z"/>
  <path class="cls-1" d="m95.56,28.83c1.27,0,2.39.85,2.72,2.08.04.15.07.32.09.48l1.99,21.09c.03.28-.06.55-.24.75-.19.2-.46.32-.74.32h0c-.45,0-.81-.28-.93-.72l-5.58-20.3c-.38-1.39.26-2.87,1.5-3.43.38-.17.78-.26,1.19-.26m0-4.07c-1,0-1.97.21-2.89.63-3.03,1.39-4.63,4.92-3.72,8.21l5.58,20.3c.61,2.22,2.56,3.71,4.85,3.71,1.43,0,2.8-.6,3.75-1.65.95-1.04,1.41-2.45,1.28-3.87l-1.99-21.09c-.04-.42-.12-.82-.22-1.18-.82-2.98-3.55-5.06-6.64-5.06h0Z"/>
</svg>